<?xml version="1.0" standalone="no"?>
<svg xmlns="http://www.w3.org/2000/svg" width="500" height="500"><defs><clipPath id="clip-path-dot-color"><path d="M 28 124v 12h 6a 6 6, 0, 0, 0, 0 -12" transform="rotate(180,34,130)"/><path d="M 28 148v 12h 6a 6 6, 0, 0, 0, 0 -12" transform="rotate(180,34,154)"/><path d="M 28 184v 12h 6a 6 6, 0, 0, 0, 0 -12" transform="rotate(180,34,190)"/><circle cx="34" cy="214" r="6" transform="rotate(0,34,214)"/><circle cx="34" cy="238" r="6" transform="rotate(0,34,238)"/><path d="M 28 256v 12h 6a 6 6, 0, 0, 0, 0 -12" transform="rotate(-90,34,262)"/><path d="M 28 268v 12h 12v -6a 6 6, 0, 0, 0, -6 -6" transform="rotate(180,34,274)"/><path d="M 28 304v 12h 6a 6 6, 0, 0, 0, 0 -12" transform="rotate(-90,34,310)"/><rect x="28" y="316" width="12" height="12" transform="rotate(0,34,322)"/><rect x="28" y="328" width="12" height="12" transform="rotate(0,34,334)"/><path d="M 28 340v 12h 12v -6a 6 6, 0, 0, 0, -6 -6" transform="rotate(180,34,346)"/><path d="M 40 124v 12h 6a 6 6, 0, 0, 0, 0 -12" transform="rotate(0,46,130)"/><rect x="40" y="148" width="12" height="12" transform="rotate(0,46,154)"/><rect x="40" y="184" width="12" height="12" transform="rotate(0,46,190)"/><rect x="40" y="268" width="12" height="12" transform="rotate(0,46,274)"/><rect x="40" y="280" width="12" height="12" transform="rotate(0,46,286)"/><path d="M 40 292v 12h 6a 6 6, 0, 0, 0, 0 -12" transform="rotate(90,46,298)"/><rect x="40" y="340" width="12" height="12" transform="rotate(0,46,346)"/><path d="M 52 136v 12h 6a 6 6, 0, 0, 0, 0 -12" transform="rotate(-90,58,142)"/><rect x="52" y="148" width="12" height="12" transform="rotate(0,58,154)"/><path d="M 52 160v 12h 6a 6 6, 0, 0, 0, 0 -12" transform="rotate(90,58,166)"/><rect x="52" y="184" width="12" height="12" transform="rotate(0,58,190)"/><rect x="52" y="196" width="12" height="12" transform="rotate(0,58,202)"/><path d="M 52 208v 12h 6a 6 6, 0, 0, 0, 0 -12" transform="rotate(90,58,214)"/><path d="M 52 232v 12h 6a 6 6, 0, 0, 0, 0 -12" transform="rotate(180,58,238)"/><rect x="52" y="268" width="12" height="12" transform="rotate(0,58,274)"/><rect x="52" y="280" width="12" height="12" transform="rotate(0,58,286)"/><path d="M 52 316v 12h 6a 6 6, 0, 0, 0, 0 -12" transform="rotate(180,58,322)"/><path d="M 52 340v 12h 6a 6 6, 0, 0, 0, 0 -12" transform="rotate(0,58,346)"/><path d="M 52 364v 12h 6a 6 6, 0, 0, 0, 0 -12" transform="rotate(180,58,370)"/><path d="M 64 172v 12h 6a 6 6, 0, 0, 0, 0 -12" transform="rotate(-90,70,178)"/><path d="M 64 184v 12h 12v -6a 6 6, 0, 0, 0, -6 -6" transform="rotate(90,70,190)"/><path d="M 64 232v 12h 12v -6a 6 6, 0, 0, 0, -6 -6" transform="rotate(0,70,238)"/><rect x="64" y="244" width="12" height="12" transform="rotate(0,70,250)"/><rect x="64" y="256" width="12" height="12" transform="rotate(0,70,262)"/><rect x="64" y="268" width="12" height="12" transform="rotate(0,70,274)"/><path d="M 64 280v 12h 12v -6a 6 6, 0, 0, 0, -6 -6" transform="rotate(90,70,286)"/><path d="M 64 316v 12h 12v -6a 6 6, 0, 0, 0, -6 -6" transform="rotate(0,70,322)"/><path d="M 64 328v 12h 12v -6a 6 6, 0, 0, 0, -6 -6" transform="rotate(180,70,334)"/><path d="M 64 352v 12h 6a 6 6, 0, 0, 0, 0 -12" transform="rotate(-90,70,358)"/><path d="M 64 364v 12h 12v -6a 6 6, 0, 0, 0, -6 -6" transform="rotate(90,70,370)"/><path d="M 76 136v 12h 12v -6a 6 6, 0, 0, 0, -6 -6" transform="rotate(-90,82,142)"/><path d="M 76 148v 12h 6a 6 6, 0, 0, 0, 0 -12" transform="rotate(90,82,154)"/><circle cx="82" cy="226" r="6" transform="rotate(0,82,226)"/><rect x="76" y="244" width="12" height="12" transform="rotate(0,82,250)"/><rect x="76" y="256" width="12" height="12" transform="rotate(0,82,262)"/><circle cx="82" cy="310" r="6" transform="rotate(0,82,310)"/><rect x="76" y="328" width="12" height="12" transform="rotate(0,82,334)"/><path d="M 76 340v 12h 12v -6a 6 6, 0, 0, 0, -6 -6" transform="rotate(180,82,346)"/><path d="M 88 136v 12h 6a 6 6, 0, 0, 0, 0 -12" transform="rotate(0,94,142)"/><circle cx="94" cy="166" r="6" transform="rotate(0,94,166)"/><path d="M 88 232v 12h 6a 6 6, 0, 0, 0, 0 -12" transform="rotate(-90,94,238)"/><rect x="88" y="244" width="12" height="12" transform="rotate(0,94,250)"/><rect x="88" y="256" width="12" height="12" transform="rotate(0,94,262)"/><path d="M 88 268v 12h 12v -6a 6 6, 0, 0, 0, -6 -6" transform="rotate(180,94,274)"/><path d="M 88 316v 12h 12v -6a 6 6, 0, 0, 0, -6 -6" transform="rotate(-90,94,322)"/><rect x="88" y="328" width="12" height="12" transform="rotate(0,94,334)"/><rect x="88" y="340" width="12" height="12" transform="rotate(0,94,346)"/><path d="M 88 364v 12h 6a 6 6, 0, 0, 0, 0 -12" transform="rotate(180,94,370)"/><circle cx="106" cy="130" r="6" transform="rotate(0,106,130)"/><path d="M 100 148v 12h 6a 6 6, 0, 0, 0, 0 -12" transform="rotate(180,106,154)"/><path d="M 100 172v 12h 6a 6 6, 0, 0, 0, 0 -12" transform="rotate(180,106,178)"/><circle cx="106" cy="202" r="6" transform="rotate(0,106,202)"/><path d="M 100 220v 12h 6a 6 6, 0, 0, 0, 0 -12" transform="rotate(180,106,226)"/><rect x="100" y="244" width="12" height="12" transform="rotate(0,106,250)"/><path d="M 100 268v 12h 6a 6 6, 0, 0, 0, 0 -12" transform="rotate(0,106,274)"/><circle cx="106" cy="298" r="6" transform="rotate(0,106,298)"/><path d="M 100 316v 12h 6a 6 6, 0, 0, 0, 0 -12" transform="rotate(0,106,322)"/><path d="M 100 340v 12h 6a 6 6, 0, 0, 0, 0 -12" transform="rotate(0,106,346)"/><rect x="100" y="364" width="12" height="12" transform="rotate(0,106,370)"/><path d="M 112 136v 12h 6a 6 6, 0, 0, 0, 0 -12" transform="rotate(-90,118,142)"/><rect x="112" y="148" width="12" height="12" transform="rotate(0,118,154)"/><rect x="112" y="160" width="12" height="12" transform="rotate(0,118,166)"/><path d="M 112 172v 12h 12v -6a 6 6, 0, 0, 0, -6 -6" transform="rotate(90,118,178)"/><path d="M 112 220v 12h 6a 6 6, 0, 0, 0, 0 -12" transform="rotate(0,118,226)"/><path d="M 112 244v 12h 6a 6 6, 0, 0, 0, 0 -12" transform="rotate(0,118,250)"/><path d="M 112 352v 12h 6a 6 6, 0, 0, 0, 0 -12" transform="rotate(-90,118,358)"/><path d="M 112 364v 12h 12v -6a 6 6, 0, 0, 0, -6 -6" transform="rotate(90,118,370)"/><path d="M 124 40v 12h 6a 6 6, 0, 0, 0, 0 -12" transform="rotate(180,130,46)"/><path d="M 124 100v 12h 6a 6 6, 0, 0, 0, 0 -12" transform="rotate(-90,130,106)"/><rect x="124" y="112" width="12" height="12" transform="rotate(0,130,118)"/><path d="M 124 124v 12h 6a 6 6, 0, 0, 0, 0 -12" transform="rotate(90,130,130)"/><rect x="124" y="148" width="12" height="12" transform="rotate(0,130,154)"/><rect x="124" y="160" width="12" height="12" transform="rotate(0,130,166)"/><path d="M 124 184v 12h 12v -6a 6 6, 0, 0, 0, -6 -6" transform="rotate(-90,130,190)"/><rect x="124" y="196" width="12" height="12" transform="rotate(0,130,202)"/><path d="M 124 208v 12h 6a 6 6, 0, 0, 0, 0 -12" transform="rotate(90,130,214)"/><path d="M 124 232v 12h 6a 6 6, 0, 0, 0, 0 -12" transform="rotate(180,130,238)"/><path d="M 124 256v 12h 6a 6 6, 0, 0, 0, 0 -12" transform="rotate(180,130,262)"/><path d="M 124 292v 12h 6a 6 6, 0, 0, 0, 0 -12" transform="rotate(180,130,298)"/><circle cx="130" cy="322" r="6" transform="rotate(0,130,322)"/><circle cx="130" cy="382" r="6" transform="rotate(0,130,382)"/><path d="M 124 448v 12h 6a 6 6, 0, 0, 0, 0 -12" transform="rotate(-90,130,454)"/><path d="M 124 460v 12h 6a 6 6, 0, 0, 0, 0 -12" transform="rotate(90,130,466)"/><path d="M 136 28v 12h 6a 6 6, 0, 0, 0, 0 -12" transform="rotate(-90,142,34)"/><path d="M 136 40v 12h 12v -6a 6 6, 0, 0, 0, -6 -6" transform="rotate(90,142,46)"/><circle cx="142" cy="70" r="6" transform="rotate(0,142,70)"/><rect x="136" y="112" width="12" height="12" transform="rotate(0,142,118)"/><path d="M 136 136v 12h 6a 6 6, 0, 0, 0, 0 -12" transform="rotate(-90,142,142)"/><rect x="136" y="148" width="12" height="12" transform="rotate(0,142,154)"/><path d="M 136 160v 12h 12v -6a 6 6, 0, 0, 0, -6 -6" transform="rotate(90,142,166)"/><rect x="136" y="184" width="12" height="12" transform="rotate(0,142,190)"/><path d="M 136 196v 12h 12v -6a 6 6, 0, 0, 0, -6 -6" transform="rotate(90,142,202)"/><rect x="136" y="232" width="12" height="12" transform="rotate(0,142,238)"/><path d="M 136 256v 12h 12v -6a 6 6, 0, 0, 0, -6 -6" transform="rotate(0,142,262)"/><rect x="136" y="268" width="12" height="12" transform="rotate(0,142,274)"/><rect x="136" y="280" width="12" height="12" transform="rotate(0,142,286)"/><rect x="136" y="292" width="12" height="12" transform="rotate(0,142,298)"/><path d="M 136 304v 12h 6a 6 6, 0, 0, 0, 0 -12" transform="rotate(90,142,310)"/><path d="M 136 328v 12h 12v -6a 6 6, 0, 0, 0, -6 -6" transform="rotate(-90,142,334)"/><rect x="136" y="340" width="12" height="12" transform="rotate(0,142,346)"/><path d="M 136 352v 12h 12v -6a 6 6, 0, 0, 0, -6 -6" transform="rotate(180,142,358)"/><path d="M 136 400v 12h 6a 6 6, 0, 0, 0, 0 -12" transform="rotate(-90,142,406)"/><rect x="136" y="412" width="12" height="12" transform="rotate(0,142,418)"/><path d="M 136 424v 12h 12v -6a 6 6, 0, 0, 0, -6 -6" transform="rotate(180,142,430)"/><path d="M 148 76v 12h 12v -6a 6 6, 0, 0, 0, -6 -6" transform="rotate(-90,154,82)"/><rect x="148" y="88" width="12" height="12" transform="rotate(0,154,94)"/><rect x="148" y="100" width="12" height="12" transform="rotate(0,154,106)"/><rect x="148" y="112" width="12" height="12" transform="rotate(0,154,118)"/><path d="M 148 124v 12h 12v -6a 6 6, 0, 0, 0, -6 -6" transform="rotate(180,154,130)"/><path d="M 148 148v 12h 6a 6 6, 0, 0, 0, 0 -12" transform="rotate(0,154,154)"/><path d="M 148 172v 12h 6a 6 6, 0, 0, 0, 0 -12" transform="rotate(-90,154,178)"/><rect x="148" y="184" width="12" height="12" transform="rotate(0,154,190)"/><path d="M 148 232v 12h 12v -6a 6 6, 0, 0, 0, -6 -6" transform="rotate(0,154,238)"/><path d="M 148 244v 12h 12v -6a 6 6, 0, 0, 0, -6 -6" transform="rotate(180,154,250)"/><rect x="148" y="268" width="12" height="12" transform="rotate(0,154,274)"/><path d="M 148 280v 12h 12v -6a 6 6, 0, 0, 0, -6 -6" transform="rotate(90,154,286)"/><path d="M 148 328v 12h 12v -6a 6 6, 0, 0, 0, -6 -6" transform="rotate(0,154,334)"/><rect x="148" y="340" width="12" height="12" transform="rotate(0,154,346)"/><rect x="148" y="352" width="12" height="12" transform="rotate(0,154,358)"/><path d="M 148 364v 12h 12v -6a 6 6, 0, 0, 0, -6 -6" transform="rotate(180,154,370)"/><path d="M 148 388v 12h 6a 6 6, 0, 0, 0, 0 -12" transform="rotate(180,154,394)"/><path d="M 148 424v 12h 6a 6 6, 0, 0, 0, 0 -12" transform="rotate(0,154,430)"/><path d="M 148 448v 12h 6a 6 6, 0, 0, 0, 0 -12" transform="rotate(-90,154,454)"/><path d="M 148 460v 12h 12v -6a 6 6, 0, 0, 0, -6 -6" transform="rotate(180,154,466)"/><path d="M 160 76v 12h 6a 6 6, 0, 0, 0, 0 -12" transform="rotate(0,166,82)"/><path d="M 160 124v 12h 12v -6a 6 6, 0, 0, 0, -6 -6" transform="rotate(0,166,130)"/><path d="M 160 136v 12h 12v -6a 6 6, 0, 0, 0, -6 -6" transform="rotate(180,166,142)"/><path d="M 160 160v 12h 6a 6 6, 0, 0, 0, 0 -12" transform="rotate(180,166,166)"/><rect x="160" y="184" width="12" height="12" transform="rotate(0,166,190)"/><path d="M 160 220v 12h 6a 6 6, 0, 0, 0, 0 -12" transform="rotate(180,166,226)"/><path d="M 160 244v 12h 12v -6a 6 6, 0, 0, 0, -6 -6" transform="rotate(0,166,250)"/><rect x="160" y="256" width="12" height="12" transform="rotate(0,166,262)"/><path d="M 160 268v 12h 12v -6a 6 6, 0, 0, 0, -6 -6" transform="rotate(90,166,274)"/><path d="M 160 292v 12h 6a 6 6, 0, 0, 0, 0 -12" transform="rotate(-90,166,298)"/><path d="M 160 304v 12h 6a 6 6, 0, 0, 0, 0 -12" transform="rotate(90,166,310)"/><path d="M 160 340v 12h 6a 6 6, 0, 0, 0, 0 -12" transform="rotate(0,166,346)"/><rect x="160" y="364" width="12" height="12" transform="rotate(0,166,370)"/><rect x="160" y="388" width="12" height="12" transform="rotate(0,166,394)"/><circle cx="166" cy="418" r="6" transform="rotate(0,166,418)"/><path d="M 160 460v 12h 6a 6 6, 0, 0, 0, 0 -12" transform="rotate(0,166,466)"/><circle cx="178" cy="34" r="6" transform="rotate(0,178,34)"/><path d="M 172 52v 12h 12v -6a 6 6, 0, 0, 0, -6 -6" transform="rotate(-90,178,58)"/><path d="M 172 64v 12h 6a 6 6, 0, 0, 0, 0 -12" transform="rotate(90,178,70)"/><circle cx="178" cy="106" r="6" transform="rotate(0,178,106)"/><rect x="172" y="136" width="12" height="12" transform="rotate(0,178,142)"/><rect x="172" y="148" width="12" height="12" transform="rotate(0,178,154)"/><path d="M 172 160v 12h 12v -6a 6 6, 0, 0, 0, -6 -6" transform="rotate(90,178,166)"/><path d="M 172 184v 12h 12v -6a 6 6, 0, 0, 0, -6 -6" transform="rotate(0,178,190)"/><path d="M 172 196v 12h 12v -6a 6 6, 0, 0, 0, -6 -6" transform="rotate(180,178,202)"/><rect x="172" y="220" width="12" height="12" transform="rotate(0,178,226)"/><path d="M 172 316v 12h 6a 6 6, 0, 0, 0, 0 -12" transform="rotate(180,178,322)"/><path d="M 172 352v 12h 12v -6a 6 6, 0, 0, 0, -6 -6" transform="rotate(-90,178,358)"/><rect x="172" y="364" width="12" height="12" transform="rotate(0,178,370)"/><path d="M 172 388v 12h 12v -6a 6 6, 0, 0, 0, -6 -6" transform="rotate(0,178,394)"/><path d="M 172 400v 12h 12v -6a 6 6, 0, 0, 0, -6 -6" transform="rotate(180,178,406)"/><circle cx="178" cy="430" r="6" transform="rotate(0,178,430)"/><path d="M 172 448v 12h 6a 6 6, 0, 0, 0, 0 -12" transform="rotate(180,178,454)"/><path d="M 184 52v 12h 6a 6 6, 0, 0, 0, 0 -12" transform="rotate(0,190,58)"/><circle cx="190" cy="82" r="6" transform="rotate(0,190,82)"/><path d="M 184 124v 12h 12v -6a 6 6, 0, 0, 0, -6 -6" transform="rotate(-90,190,130)"/><rect x="184" y="136" width="12" height="12" transform="rotate(0,190,142)"/><path d="M 184 148v 12h 12v -6a 6 6, 0, 0, 0, -6 -6" transform="rotate(90,190,154)"/><circle cx="190" cy="178" r="6" transform="rotate(0,190,178)"/><rect x="184" y="196" width="12" height="12" transform="rotate(0,190,202)"/><rect x="184" y="208" width="12" height="12" transform="rotate(0,190,214)"/><rect x="184" y="220" width="12" height="12" transform="rotate(0,190,226)"/><rect x="184" y="232" width="12" height="12" transform="rotate(0,190,238)"/><rect x="184" y="244" width="12" height="12" transform="rotate(0,190,250)"/><path d="M 184 256v 12h 12v -6a 6 6, 0, 0, 0, -6 -6" transform="rotate(180,190,262)"/><circle cx="190" cy="286" r="6" transform="rotate(0,190,286)"/><path d="M 184 304v 12h 6a 6 6, 0, 0, 0, 0 -12" transform="rotate(-90,190,310)"/><path d="M 184 316v 12h 12v -6a 6 6, 0, 0, 0, -6 -6" transform="rotate(90,190,322)"/><path d="M 184 340v 12h 6a 6 6, 0, 0, 0, 0 -12" transform="rotate(-90,190,346)"/><rect x="184" y="352" width="12" height="12" transform="rotate(0,190,358)"/><rect x="184" y="364" width="12" height="12" transform="rotate(0,190,370)"/><path d="M 184 376v 12h 6a 6 6, 0, 0, 0, 0 -12" transform="rotate(90,190,382)"/><rect x="184" y="400" width="12" height="12" transform="rotate(0,190,406)"/><path d="M 184 436v 12h 6a 6 6, 0, 0, 0, 0 -12" transform="rotate(-90,190,442)"/><rect x="184" y="448" width="12" height="12" transform="rotate(0,190,454)"/><circle cx="202" cy="34" r="6" transform="rotate(0,202,34)"/><path d="M 196 64v 12h 6a 6 6, 0, 0, 0, 0 -12" transform="rotate(180,202,70)"/><path d="M 196 100v 12h 6a 6 6, 0, 0, 0, 0 -12" transform="rotate(-90,202,106)"/><rect x="196" y="112" width="12" height="12" transform="rotate(0,202,118)"/><rect x="196" y="124" width="12" height="12" transform="rotate(0,202,130)"/><rect x="196" y="136" width="12" height="12" transform="rotate(0,202,142)"/><path d="M 196 160v 12h 6a 6 6, 0, 0, 0, 0 -12" transform="rotate(180,202,166)"/><path d="M 196 184v 12h 6a 6 6, 0, 0, 0, 0 -12" transform="rotate(-90,202,190)"/><rect x="196" y="196" width="12" height="12" transform="rotate(0,202,202)"/><path d="M 196 256v 12h 12v -6a 6 6, 0, 0, 0, -6 -6" transform="rotate(0,202,262)"/><path d="M 196 268v 12h 12v -6a 6 6, 0, 0, 0, -6 -6" transform="rotate(180,202,274)"/><path d="M 196 292v 12h 6a 6 6, 0, 0, 0, 0 -12" transform="rotate(180,202,298)"/><circle cx="202" cy="334" r="6" transform="rotate(0,202,334)"/><path d="M 196 352v 12h 6a 6 6, 0, 0, 0, 0 -12" transform="rotate(0,202,358)"/><path d="M 196 388v 12h 6a 6 6, 0, 0, 0, 0 -12" transform="rotate(-90,202,394)"/><path d="M 196 400v 12h 12v -6a 6 6, 0, 0, 0, -6 -6" transform="rotate(90,202,406)"/><path d="M 196 424v 12h 6a 6 6, 0, 0, 0, 0 -12" transform="rotate(180,202,430)"/><rect x="196" y="448" width="12" height="12" transform="rotate(0,202,454)"/><path d="M 196 460v 12h 6a 6 6, 0, 0, 0, 0 -12" transform="rotate(90,202,466)"/><path d="M 208 40v 12h 12v -6a 6 6, 0, 0, 0, -6 -6" transform="rotate(-90,214,46)"/><rect x="208" y="52" width="12" height="12" transform="rotate(0,214,58)"/><path d="M 208 64v 12h 12v -6a 6 6, 0, 0, 0, -6 -6" transform="rotate(90,214,70)"/><path d="M 208 136v 12h 12v -6a 6 6, 0, 0, 0, -6 -6" transform="rotate(0,214,142)"/><rect x="208" y="148" width="12" height="12" transform="rotate(0,214,154)"/><rect x="208" y="160" width="12" height="12" transform="rotate(0,214,166)"/><path d="M 208 172v 12h 6a 6 6, 0, 0, 0, 0 -12" transform="rotate(90,214,178)"/><path d="M 208 196v 12h 6a 6 6, 0, 0, 0, 0 -12" transform="rotate(0,214,202)"/><path d="M 208 220v 12h 6a 6 6, 0, 0, 0, 0 -12" transform="rotate(-90,214,226)"/><path d="M 208 232v 12h 6a 6 6, 0, 0, 0, 0 -12" transform="rotate(90,214,238)"/><path d="M 208 268v 12h 12v -6a 6 6, 0, 0, 0, -6 -6" transform="rotate(0,214,274)"/><rect x="208" y="280" width="12" height="12" transform="rotate(0,214,286)"/><rect x="208" y="292" width="12" height="12" transform="rotate(0,214,298)"/><path d="M 208 304v 12h 6a 6 6, 0, 0, 0, 0 -12" transform="rotate(90,214,310)"/><path d="M 208 412v 12h 12v -6a 6 6, 0, 0, 0, -6 -6" transform="rotate(-90,214,418)"/><rect x="208" y="424" width="12" height="12" transform="rotate(0,214,430)"/><rect x="208" y="436" width="12" height="12" transform="rotate(0,214,442)"/><path d="M 208 448v 12h 12v -6a 6 6, 0, 0, 0, -6 -6" transform="rotate(90,214,454)"/><path d="M 220 40v 12h 12v -6a 6 6, 0, 0, 0, -6 -6" transform="rotate(0,226,46)"/><path d="M 220 52v 12h 12v -6a 6 6, 0, 0, 0, -6 -6" transform="rotate(90,226,58)"/><path d="M 220 76v 12h 6a 6 6, 0, 0, 0, 0 -12" transform="rotate(180,226,82)"/><path d="M 220 100v 12h 6a 6 6, 0, 0, 0, 0 -12" transform="rotate(-90,226,106)"/><path d="M 220 112v 12h 6a 6 6, 0, 0, 0, 0 -12" transform="rotate(90,226,118)"/><rect x="220" y="148" width="12" height="12" transform="rotate(0,226,154)"/><rect x="220" y="280" width="12" height="12" transform="rotate(0,226,286)"/><path d="M 220 292v 12h 12v -6a 6 6, 0, 0, 0, -6 -6" transform="rotate(90,226,298)"/><path d="M 220 316v 12h 6a 6 6, 0, 0, 0, 0 -12" transform="rotate(-90,226,322)"/><rect x="220" y="328" width="12" height="12" transform="rotate(0,226,334)"/><rect x="220" y="340" width="12" height="12" transform="rotate(0,226,346)"/><path d="M 220 352v 12h 12v -6a 6 6, 0, 0, 0, -6 -6" transform="rotate(180,226,358)"/><path d="M 220 376v 12h 6a 6 6, 0, 0, 0, 0 -12" transform="rotate(-90,226,382)"/><rect x="220" y="388" width="12" height="12" transform="rotate(0,226,394)"/><rect x="220" y="400" width="12" height="12" transform="rotate(0,226,406)"/><path d="M 220 412v 12h 12v -6a 6 6, 0, 0, 0, -6 -6" transform="rotate(90,226,418)"/><path d="M 220 436v 12h 6a 6 6, 0, 0, 0, 0 -12" transform="rotate(0,226,442)"/><circle cx="226" cy="466" r="6" transform="rotate(0,226,466)"/><path d="M 232 28v 12h 6a 6 6, 0, 0, 0, 0 -12" transform="rotate(180,238,34)"/><path d="M 232 64v 12h 12v -6a 6 6, 0, 0, 0, -6 -6" transform="rotate(-90,238,70)"/><rect x="232" y="76" width="12" height="12" transform="rotate(0,238,82)"/><path d="M 232 124v 12h 12v -6a 6 6, 0, 0, 0, -6 -6" transform="rotate(-90,238,130)"/><rect x="232" y="136" width="12" height="12" transform="rotate(0,238,142)"/><rect x="232" y="148" width="12" height="12" transform="rotate(0,238,154)"/><rect x="232" y="160" width="12" height="12" transform="rotate(0,238,166)"/><rect x="232" y="172" width="12" height="12" transform="rotate(0,238,178)"/><path d="M 232 184v 12h 6a 6 6, 0, 0, 0, 0 -12" transform="rotate(90,238,190)"/><path d="M 232 208v 12h 6a 6 6, 0, 0, 0, 0 -12" transform="rotate(-90,238,214)"/><path d="M 232 220v 12h 12v -6a 6 6, 0, 0, 0, -6 -6" transform="rotate(180,238,226)"/><path d="M 232 256v 12h 6a 6 6, 0, 0, 0, 0 -12" transform="rotate(180,238,262)"/><rect x="232" y="280" width="12" height="12" transform="rotate(0,238,286)"/><rect x="232" y="352" width="12" height="12" transform="rotate(0,238,358)"/><path d="M 232 400v 12h 6a 6 6, 0, 0, 0, 0 -12" transform="rotate(0,238,406)"/><path d="M 232 424v 12h 6a 6 6, 0, 0, 0, 0 -12" transform="rotate(180,238,430)"/><rect x="244" y="28" width="12" height="12" transform="rotate(0,250,34)"/><rect x="244" y="40" width="12" height="12" transform="rotate(0,250,46)"/><rect x="244" y="52" width="12" height="12" transform="rotate(0,250,58)"/><rect x="244" y="64" width="12" height="12" transform="rotate(0,250,70)"/><rect x="244" y="76" width="12" height="12" transform="rotate(0,250,82)"/><rect x="244" y="88" width="12" height="12" transform="rotate(0,250,94)"/><path d="M 244 100v 12h 6a 6 6, 0, 0, 0, 0 -12" transform="rotate(90,250,106)"/><path d="M 244 124v 12h 12v -6a 6 6, 0, 0, 0, -6 -6" transform="rotate(0,250,130)"/><rect x="244" y="136" width="12" height="12" transform="rotate(0,250,142)"/><rect x="244" y="148" width="12" height="12" transform="rotate(0,250,154)"/><path d="M 244 160v 12h 12v -6a 6 6, 0, 0, 0, -6 -6" transform="rotate(90,250,166)"/><path d="M 244 220v 12h 6a 6 6, 0, 0, 0, 0 -12" transform="rotate(0,250,226)"/><path d="M 244 244v 12h 6a 6 6, 0, 0, 0, 0 -12" transform="rotate(-90,250,250)"/><rect x="244" y="256" width="12" height="12" transform="rotate(0,250,262)"/><rect x="244" y="268" width="12" height="12" transform="rotate(0,250,274)"/><rect x="244" y="280" width="12" height="12" transform="rotate(0,250,286)"/><path d="M 244 292v 12h 12v -6a 6 6, 0, 0, 0, -6 -6" transform="rotate(180,250,298)"/><circle cx="250" cy="322" r="6" transform="rotate(0,250,322)"/><path d="M 244 340v 12h 6a 6 6, 0, 0, 0, 0 -12" transform="rotate(-90,250,346)"/><path d="M 244 352v 12h 12v -6a 6 6, 0, 0, 0, -6 -6" transform="rotate(90,250,358)"/><path d="M 244 376v 12h 6a 6 6, 0, 0, 0, 0 -12" transform="rotate(180,250,382)"/><rect x="244" y="424" width="12" height="12" transform="rotate(0,250,430)"/><path d="M 244 436v 12h 6a 6 6, 0, 0, 0, 0 -12" transform="rotate(90,250,442)"/><path d="M 244 460v 12h 6a 6 6, 0, 0, 0, 0 -12" transform="rotate(180,250,466)"/><rect x="256" y="28" width="12" height="12" transform="rotate(0,262,34)"/><path d="M 256 52v 12h 6a 6 6, 0, 0, 0, 0 -12" transform="rotate(0,262,58)"/><path d="M 256 136v 12h 12v -6a 6 6, 0, 0, 0, -6 -6" transform="rotate(0,262,142)"/><path d="M 256 148v 12h 12v -6a 6 6, 0, 0, 0, -6 -6" transform="rotate(90,262,154)"/><path d="M 256 196v 12h 6a 6 6, 0, 0, 0, 0 -12" transform="rotate(-90,262,202)"/><path d="M 256 208v 12h 6a 6 6, 0, 0, 0, 0 -12" transform="rotate(90,262,214)"/><path d="M 256 232v 12h 6a 6 6, 0, 0, 0, 0 -12" transform="rotate(180,262,238)"/><path d="M 256 268v 12h 6a 6 6, 0, 0, 0, 0 -12" transform="rotate(0,262,274)"/><rect x="256" y="292" width="12" height="12" transform="rotate(0,262,298)"/><path d="M 256 304v 12h 12v -6a 6 6, 0, 0, 0, -6 -6" transform="rotate(180,262,310)"/><path d="M 256 364v 12h 6a 6 6, 0, 0, 0, 0 -12" transform="rotate(-90,262,370)"/><rect x="256" y="376" width="12" height="12" transform="rotate(0,262,382)"/><rect x="256" y="388" width="12" height="12" transform="rotate(0,262,394)"/><path d="M 256 400v 12h 12v -6a 6 6, 0, 0, 0, -6 -6" transform="rotate(180,262,406)"/><rect x="256" y="424" width="12" height="12" transform="rotate(0,262,430)"/><path d="M 256 448v 12h 12v -6a 6 6, 0, 0, 0, -6 -6" transform="rotate(-90,262,454)"/><rect x="256" y="460" width="12" height="12" transform="rotate(0,262,466)"/><path d="M 268 28v 12h 6a 6 6, 0, 0, 0, 0 -12" transform="rotate(0,274,34)"/><path d="M 268 64v 12h 6a 6 6, 0, 0, 0, 0 -12" transform="rotate(180,274,70)"/><path d="M 268 88v 12h 6a 6 6, 0, 0, 0, 0 -12" transform="rotate(-90,274,94)"/><path d="M 268 100v 12h 6a 6 6, 0, 0, 0, 0 -12" transform="rotate(90,274,106)"/><path d="M 268 160v 12h 6a 6 6, 0, 0, 0, 0 -12" transform="rotate(-90,274,166)"/><path d="M 268 172v 12h 6a 6 6, 0, 0, 0, 0 -12" transform="rotate(90,274,178)"/><rect x="268" y="232" width="12" height="12" transform="rotate(0,274,238)"/><path d="M 268 244v 12h 6a 6 6, 0, 0, 0, 0 -12" transform="rotate(90,274,250)"/><rect x="268" y="292" width="12" height="12" transform="rotate(0,274,298)"/><rect x="268" y="304" width="12" height="12" transform="rotate(0,274,310)"/><path d="M 268 328v 12h 12v -6a 6 6, 0, 0, 0, -6 -6" transform="rotate(-90,274,334)"/><path d="M 268 340v 12h 12v -6a 6 6, 0, 0, 0, -6 -6" transform="rotate(180,274,346)"/><path d="M 268 376v 12h 12v -6a 6 6, 0, 0, 0, -6 -6" transform="rotate(0,274,382)"/><rect x="268" y="388" width="12" height="12" transform="rotate(0,274,394)"/><rect x="268" y="400" width="12" height="12" transform="rotate(0,274,406)"/><rect x="268" y="412" width="12" height="12" transform="rotate(0,274,418)"/><rect x="268" y="424" width="12" height="12" transform="rotate(0,274,430)"/><rect x="268" y="436" width="12" height="12" transform="rotate(0,274,442)"/><rect x="268" y="448" width="12" height="12" transform="rotate(0,274,454)"/><path d="M 268 460v 12h 12v -6a 6 6, 0, 0, 0, -6 -6" transform="rotate(90,274,466)"/><path d="M 280 52v 12h 12v -6a 6 6, 0, 0, 0, -6 -6" transform="rotate(-90,286,58)"/><rect x="280" y="64" width="12" height="12" transform="rotate(0,286,70)"/><path d="M 280 112v 12h 12v -6a 6 6, 0, 0, 0, -6 -6" transform="rotate(-90,286,118)"/><path d="M 280 124v 12h 12v -6a 6 6, 0, 0, 0, -6 -6" transform="rotate(180,286,130)"/><path d="M 280 196v 12h 6a 6 6, 0, 0, 0, 0 -12" transform="rotate(180,286,202)"/><path d="M 280 220v 12h 6a 6 6, 0, 0, 0, 0 -12" transform="rotate(-90,286,226)"/><rect x="280" y="232" width="12" height="12" transform="rotate(0,286,238)"/><path d="M 280 280v 12h 6a 6 6, 0, 0, 0, 0 -12" transform="rotate(-90,286,286)"/><rect x="280" y="292" width="12" height="12" transform="rotate(0,286,298)"/><path d="M 280 304v 12h 12v -6a 6 6, 0, 0, 0, -6 -6" transform="rotate(90,286,310)"/><rect x="280" y="328" width="12" height="12" transform="rotate(0,286,334)"/><rect x="280" y="340" width="12" height="12" transform="rotate(0,286,346)"/><rect x="280" y="352" width="12" height="12" transform="rotate(0,286,358)"/><path d="M 280 364v 12h 6a 6 6, 0, 0, 0, 0 -12" transform="rotate(90,286,370)"/><path d="M 280 400v 12h 12v -6a 6 6, 0, 0, 0, -6 -6" transform="rotate(0,286,406)"/><path d="M 280 412v 12h 12v -6a 6 6, 0, 0, 0, -6 -6" transform="rotate(90,286,418)"/><path d="M 292 40v 12h 6a 6 6, 0, 0, 0, 0 -12" transform="rotate(-90,298,46)"/><rect x="292" y="52" width="12" height="12" transform="rotate(0,298,58)"/><rect x="292" y="64" width="12" height="12" transform="rotate(0,298,70)"/><path d="M 292 100v 12h 6a 6 6, 0, 0, 0, 0 -12" transform="rotate(-90,298,106)"/><rect x="292" y="112" width="12" height="12" transform="rotate(0,298,118)"/><rect x="292" y="124" width="12" height="12" transform="rotate(0,298,130)"/><path d="M 292 136v 12h 12v -6a 6 6, 0, 0, 0, -6 -6" transform="rotate(180,298,142)"/><path d="M 292 160v 12h 6a 6 6, 0, 0, 0, 0 -12" transform="rotate(180,298,166)"/><rect x="292" y="196" width="12" height="12" transform="rotate(0,298,202)"/><path d="M 292 232v 12h 12v -6a 6 6, 0, 0, 0, -6 -6" transform="rotate(0,298,238)"/><rect x="292" y="244" width="12" height="12" transform="rotate(0,298,250)"/><path d="M 292 256v 12h 12v -6a 6 6, 0, 0, 0, -6 -6" transform="rotate(180,298,262)"/><rect x="292" y="292" width="12" height="12" transform="rotate(0,298,298)"/><rect x="292" y="328" width="12" height="12" transform="rotate(0,298,334)"/><rect x="292" y="340" width="12" height="12" transform="rotate(0,298,346)"/><rect x="292" y="352" width="12" height="12" transform="rotate(0,298,358)"/><circle cx="298" cy="382" r="6" transform="rotate(0,298,382)"/><path d="M 292 448v 12h 12v -6a 6 6, 0, 0, 0, -6 -6" transform="rotate(-90,298,454)"/><path d="M 292 460v 12h 12v -6a 6 6, 0, 0, 0, -6 -6" transform="rotate(180,298,466)"/><rect x="304" y="64" width="12" height="12" transform="rotate(0,310,70)"/><path d="M 304 88v 12h 6a 6 6, 0, 0, 0, 0 -12" transform="rotate(180,310,94)"/><rect x="304" y="112" width="12" height="12" transform="rotate(0,310,118)"/><path d="M 304 136v 12h 6a 6 6, 0, 0, 0, 0 -12" transform="rotate(0,310,142)"/><path d="M 304 160v 12h 12v -6a 6 6, 0, 0, 0, -6 -6" transform="rotate(0,310,166)"/><rect x="304" y="172" width="12" height="12" transform="rotate(0,310,178)"/><rect x="304" y="184" width="12" height="12" transform="rotate(0,310,190)"/><rect x="304" y="196" width="12" height="12" transform="rotate(0,310,202)"/><path d="M 304 244v 12h 12v -6a 6 6, 0, 0, 0, -6 -6" transform="rotate(0,310,250)"/><rect x="304" y="256" width="12" height="12" transform="rotate(0,310,262)"/><path d="M 304 268v 12h 6a 6 6, 0, 0, 0, 0 -12" transform="rotate(90,310,274)"/><path d="M 304 292v 12h 6a 6 6, 0, 0, 0, 0 -12" transform="rotate(0,310,298)"/><path d="M 304 316v 12h 12v -6a 6 6, 0, 0, 0, -6 -6" transform="rotate(-90,310,322)"/><rect x="304" y="328" width="12" height="12" transform="rotate(0,310,334)"/><path d="M 304 352v 12h 6a 6 6, 0, 0, 0, 0 -12" transform="rotate(0,310,358)"/><path d="M 304 388v 12h 12v -6a 6 6, 0, 0, 0, -6 -6" transform="rotate(-90,310,394)"/><path d="M 304 400v 12h 12v -6a 6 6, 0, 0, 0, -6 -6" transform="rotate(180,310,406)"/><path d="M 304 424v 12h 6a 6 6, 0, 0, 0, 0 -12" transform="rotate(180,310,430)"/><rect x="304" y="448" width="12" height="12" transform="rotate(0,310,454)"/><rect x="304" y="460" width="12" height="12" transform="rotate(0,310,466)"/><path d="M 316 28v 12h 12v -6a 6 6, 0, 0, 0, -6 -6" transform="rotate(-90,322,34)"/><path d="M 316 40v 12h 12v -6a 6 6, 0, 0, 0, -6 -6" transform="rotate(180,322,46)"/><rect x="316" y="64" width="12" height="12" transform="rotate(0,322,70)"/><rect x="316" y="76" width="12" height="12" transform="rotate(0,322,82)"/><rect x="316" y="88" width="12" height="12" transform="rotate(0,322,94)"/><rect x="316" y="100" width="12" height="12" transform="rotate(0,322,106)"/><rect x="316" y="112" width="12" height="12" transform="rotate(0,322,118)"/><rect x="316" y="172" width="12" height="12" transform="rotate(0,322,178)"/><rect x="316" y="196" width="12" height="12" transform="rotate(0,322,202)"/><path d="M 316 232v 12h 6a 6 6, 0, 0, 0, 0 -12" transform="rotate(180,322,238)"/><path d="M 316 256v 12h 6a 6 6, 0, 0, 0, 0 -12" transform="rotate(0,322,262)"/><path d="M 316 304v 12h 12v -6a 6 6, 0, 0, 0, -6 -6" transform="rotate(-90,322,310)"/><rect x="316" y="316" width="12" height="12" transform="rotate(0,322,322)"/><path d="M 316 328v 12h 12v -6a 6 6, 0, 0, 0, -6 -6" transform="rotate(90,322,334)"/><path d="M 316 364v 12h 12v -6a 6 6, 0, 0, 0, -6 -6" transform="rotate(-90,322,370)"/><rect x="316" y="376" width="12" height="12" transform="rotate(0,322,382)"/><rect x="316" y="388" width="12" height="12" transform="rotate(0,322,394)"/><rect x="316" y="400" width="12" height="12" transform="rotate(0,322,406)"/><rect x="316" y="424" width="12" height="12" transform="rotate(0,322,430)"/><path d="M 316 448v 12h 12v -6a 6 6, 0, 0, 0, -6 -6" transform="rotate(0,322,454)"/><path d="M 316 460v 12h 12v -6a 6 6, 0, 0, 0, -6 -6" transform="rotate(90,322,466)"/><rect x="328" y="28" width="12" height="12" transform="rotate(0,334,34)"/><rect x="328" y="40" width="12" height="12" transform="rotate(0,334,46)"/><rect x="328" y="52" width="12" height="12" transform="rotate(0,334,58)"/><path d="M 328 64v 12h 12v -6a 6 6, 0, 0, 0, -6 -6" transform="rotate(90,334,70)"/><rect x="328" y="112" width="12" height="12" transform="rotate(0,334,118)"/><path d="M 328 136v 12h 6a 6 6, 0, 0, 0, 0 -12" transform="rotate(180,334,142)"/><rect x="328" y="172" width="12" height="12" transform="rotate(0,334,178)"/><rect x="328" y="184" width="12" height="12" transform="rotate(0,334,190)"/><rect x="328" y="196" width="12" height="12" transform="rotate(0,334,202)"/><rect x="328" y="208" width="12" height="12" transform="rotate(0,334,214)"/><rect x="328" y="220" width="12" height="12" transform="rotate(0,334,226)"/><rect x="328" y="232" width="12" height="12" transform="rotate(0,334,238)"/><path d="M 328 244v 12h 6a 6 6, 0, 0, 0, 0 -12" transform="rotate(90,334,250)"/><path d="M 328 268v 12h 6a 6 6, 0, 0, 0, 0 -12" transform="rotate(-90,334,274)"/><rect x="328" y="280" width="12" height="12" transform="rotate(0,334,286)"/><rect x="328" y="292" width="12" height="12" transform="rotate(0,334,298)"/><rect x="328" y="304" width="12" height="12" transform="rotate(0,334,310)"/><path d="M 328 316v 12h 12v -6a 6 6, 0, 0, 0, -6 -6" transform="rotate(90,334,322)"/><path d="M 328 352v 12h 12v -6a 6 6, 0, 0, 0, -6 -6" transform="rotate(-90,334,358)"/><rect x="328" y="364" width="12" height="12" transform="rotate(0,334,370)"/><path d="M 328 376v 12h 12v -6a 6 6, 0, 0, 0, -6 -6" transform="rotate(90,334,382)"/><rect x="328" y="400" width="12" height="12" transform="rotate(0,334,406)"/><path d="M 328 424v 12h 12v -6a 6 6, 0, 0, 0, -6 -6" transform="rotate(0,334,430)"/><path d="M 328 436v 12h 12v -6a 6 6, 0, 0, 0, -6 -6" transform="rotate(180,334,442)"/><rect x="340" y="28" width="12" height="12" transform="rotate(0,346,34)"/><rect x="340" y="52" width="12" height="12" transform="rotate(0,346,58)"/><path d="M 340 76v 12h 6a 6 6, 0, 0, 0, 0 -12" transform="rotate(180,346,82)"/><path d="M 340 100v 12h 6a 6 6, 0, 0, 0, 0 -12" transform="rotate(-90,346,106)"/><rect x="340" y="112" width="12" height="12" transform="rotate(0,346,118)"/><path d="M 340 136v 12h 6a 6 6, 0, 0, 0, 0 -12" transform="rotate(0,346,142)"/><rect x="340" y="172" width="12" height="12" transform="rotate(0,346,178)"/><rect x="340" y="196" width="12" height="12" transform="rotate(0,346,202)"/><path d="M 340 220v 12h 12v -6a 6 6, 0, 0, 0, -6 -6" transform="rotate(0,346,226)"/><rect x="340" y="232" width="12" height="12" transform="rotate(0,346,238)"/><path d="M 340 256v 12h 6a 6 6, 0, 0, 0, 0 -12" transform="rotate(180,346,262)"/><path d="M 340 292v 12h 6a 6 6, 0, 0, 0, 0 -12" transform="rotate(0,346,298)"/><path d="M 340 328v 12h 6a 6 6, 0, 0, 0, 0 -12" transform="rotate(-90,346,334)"/><rect x="340" y="340" width="12" height="12" transform="rotate(0,346,346)"/><rect x="340" y="352" width="12" height="12" transform="rotate(0,346,358)"/><path d="M 340 364v 12h 12v -6a 6 6, 0, 0, 0, -6 -6" transform="rotate(90,346,370)"/><path d="M 340 388v 12h 6a 6 6, 0, 0, 0, 0 -12" transform="rotate(-90,346,394)"/><rect x="340" y="400" width="12" height="12" transform="rotate(0,346,406)"/><path d="M 340 412v 12h 6a 6 6, 0, 0, 0, 0 -12" transform="rotate(90,346,418)"/><rect x="340" y="436" width="12" height="12" transform="rotate(0,346,442)"/><rect x="340" y="448" width="12" height="12" transform="rotate(0,346,454)"/><path d="M 340 460v 12h 6a 6 6, 0, 0, 0, 0 -12" transform="rotate(90,346,466)"/><rect x="352" y="28" width="12" height="12" transform="rotate(0,358,34)"/><path d="M 352 52v 12h 6a 6 6, 0, 0, 0, 0 -12" transform="rotate(0,358,58)"/><path d="M 352 76v 12h 6a 6 6, 0, 0, 0, 0 -12" transform="rotate(0,358,82)"/><rect x="352" y="112" width="12" height="12" transform="rotate(0,358,118)"/><path d="M 352 124v 12h 6a 6 6, 0, 0, 0, 0 -12" transform="rotate(90,358,130)"/><path d="M 352 172v 12h 6a 6 6, 0, 0, 0, 0 -12" transform="rotate(0,358,178)"/><rect x="352" y="196" width="12" height="12" transform="rotate(0,358,202)"/><rect x="352" y="232" width="12" height="12" transform="rotate(0,358,238)"/><rect x="352" y="256" width="12" height="12" transform="rotate(0,358,262)"/><path d="M 352 376v 12h 6a 6 6, 0, 0, 0, 0 -12" transform="rotate(180,358,382)"/><rect x="352" y="400" width="12" height="12" transform="rotate(0,358,406)"/><rect x="352" y="436" width="12" height="12" transform="rotate(0,358,442)"/><path d="M 352 448v 12h 12v -6a 6 6, 0, 0, 0, -6 -6" transform="rotate(90,358,454)"/><path d="M 364 28v 12h 6a 6 6, 0, 0, 0, 0 -12" transform="rotate(0,370,34)"/><circle cx="370" cy="70" r="6" transform="rotate(0,370,70)"/><path d="M 364 88v 12h 6a 6 6, 0, 0, 0, 0 -12" transform="rotate(-90,370,94)"/><rect x="364" y="100" width="12" height="12" transform="rotate(0,370,106)"/><path d="M 364 112v 12h 12v -6a 6 6, 0, 0, 0, -6 -6" transform="rotate(90,370,118)"/><path d="M 364 136v 12h 12v -6a 6 6, 0, 0, 0, -6 -6" transform="rotate(-90,370,142)"/><path d="M 364 148v 12h 6a 6 6, 0, 0, 0, 0 -12" transform="rotate(90,370,154)"/><path d="M 364 184v 12h 6a 6 6, 0, 0, 0, 0 -12" transform="rotate(-90,370,190)"/><rect x="364" y="196" width="12" height="12" transform="rotate(0,370,202)"/><path d="M 364 220v 12h 12v -6a 6 6, 0, 0, 0, -6 -6" transform="rotate(-90,370,226)"/><rect x="364" y="232" width="12" height="12" transform="rotate(0,370,238)"/><rect x="364" y="244" width="12" height="12" transform="rotate(0,370,250)"/><path d="M 364 256v 12h 12v -6a 6 6, 0, 0, 0, -6 -6" transform="rotate(90,370,262)"/><path d="M 364 292v 12h 6a 6 6, 0, 0, 0, 0 -12" transform="rotate(-90,370,298)"/><path d="M 364 304v 12h 12v -6a 6 6, 0, 0, 0, -6 -6" transform="rotate(180,370,310)"/><path d="M 364 328v 12h 12v -6a 6 6, 0, 0, 0, -6 -6" transform="rotate(-90,370,334)"/><path d="M 364 340v 12h 12v -6a 6 6, 0, 0, 0, -6 -6" transform="rotate(180,370,346)"/><path d="M 364 364v 12h 12v -6a 6 6, 0, 0, 0, -6 -6" transform="rotate(-90,370,370)"/><rect x="364" y="376" width="12" height="12" transform="rotate(0,370,382)"/><rect x="364" y="388" width="12" height="12" transform="rotate(0,370,394)"/><rect x="364" y="400" width="12" height="12" transform="rotate(0,370,406)"/><path d="M 364 412v 12h 12v -6a 6 6, 0, 0, 0, -6 -6" transform="rotate(180,370,418)"/><path d="M 364 436v 12h 6a 6 6, 0, 0, 0, 0 -12" transform="rotate(0,370,442)"/><circle cx="370" cy="466" r="6" transform="rotate(0,370,466)"/><path d="M 376 124v 12h 12v -6a 6 6, 0, 0, 0, -6 -6" transform="rotate(-90,382,130)"/><path d="M 376 136v 12h 12v -6a 6 6, 0, 0, 0, -6 -6" transform="rotate(90,382,142)"/><circle cx="382" cy="166" r="6" transform="rotate(0,382,166)"/><path d="M 376 196v 12h 6a 6 6, 0, 0, 0, 0 -12" transform="rotate(0,382,202)"/><rect x="376" y="220" width="12" height="12" transform="rotate(0,382,226)"/><path d="M 376 268v 12h 6a 6 6, 0, 0, 0, 0 -12" transform="rotate(180,382,274)"/><rect x="376" y="304" width="12" height="12" transform="rotate(0,382,310)"/><path d="M 376 328v 12h 12v -6a 6 6, 0, 0, 0, -6 -6" transform="rotate(0,382,334)"/><rect x="376" y="340" width="12" height="12" transform="rotate(0,382,346)"/><rect x="376" y="352" width="12" height="12" transform="rotate(0,382,358)"/><rect x="376" y="364" width="12" height="12" transform="rotate(0,382,370)"/><rect x="376" y="412" width="12" height="12" transform="rotate(0,382,418)"/><path d="M 376 424v 12h 12v -6a 6 6, 0, 0, 0, -6 -6" transform="rotate(180,382,430)"/><circle cx="382" cy="454" r="6" transform="rotate(0,382,454)"/><path d="M 388 124v 12h 6a 6 6, 0, 0, 0, 0 -12" transform="rotate(0,394,130)"/><circle cx="394" cy="154" r="6" transform="rotate(0,394,154)"/><circle cx="394" cy="190" r="6" transform="rotate(0,394,190)"/><path d="M 388 208v 12h 6a 6 6, 0, 0, 0, 0 -12" transform="rotate(-90,394,214)"/><path d="M 388 220v 12h 12v -6a 6 6, 0, 0, 0, -6 -6" transform="rotate(90,394,226)"/><path d="M 388 244v 12h 6a 6 6, 0, 0, 0, 0 -12" transform="rotate(-90,394,250)"/><rect x="388" y="256" width="12" height="12" transform="rotate(0,394,262)"/><rect x="388" y="268" width="12" height="12" transform="rotate(0,394,274)"/><rect x="388" y="280" width="12" height="12" transform="rotate(0,394,286)"/><rect x="388" y="292" width="12" height="12" transform="rotate(0,394,298)"/><rect x="388" y="304" width="12" height="12" transform="rotate(0,394,310)"/><rect x="388" y="364" width="12" height="12" transform="rotate(0,394,370)"/><circle cx="394" cy="394" r="6" transform="rotate(0,394,394)"/><rect x="388" y="412" width="12" height="12" transform="rotate(0,394,418)"/><rect x="388" y="424" width="12" height="12" transform="rotate(0,394,430)"/><path d="M 388 436v 12h 6a 6 6, 0, 0, 0, 0 -12" transform="rotate(90,394,442)"/><circle cx="394" cy="466" r="6" transform="rotate(0,394,466)"/><circle cx="406" cy="178" r="6" transform="rotate(0,406,178)"/><circle cx="406" cy="202" r="6" transform="rotate(0,406,202)"/><path d="M 400 232v 12h 6a 6 6, 0, 0, 0, 0 -12" transform="rotate(180,406,238)"/><path d="M 400 268v 12h 6a 6 6, 0, 0, 0, 0 -12" transform="rotate(0,406,274)"/><path d="M 400 292v 12h 12v -6a 6 6, 0, 0, 0, -6 -6" transform="rotate(0,406,298)"/><path d="M 400 304v 12h 12v -6a 6 6, 0, 0, 0, -6 -6" transform="rotate(90,406,310)"/><path d="M 400 340v 12h 12v -6a 6 6, 0, 0, 0, -6 -6" transform="rotate(-90,406,346)"/><rect x="400" y="352" width="12" height="12" transform="rotate(0,406,358)"/><rect x="400" y="364" width="12" height="12" transform="rotate(0,406,370)"/><rect x="400" y="412" width="12" height="12" transform="rotate(0,406,418)"/><path d="M 400 424v 12h 12v -6a 6 6, 0, 0, 0, -6 -6" transform="rotate(90,406,430)"/><circle cx="418" cy="214" r="6" transform="rotate(0,418,214)"/><rect x="412" y="232" width="12" height="12" transform="rotate(0,418,238)"/><path d="M 412 244v 12h 12v -6a 6 6, 0, 0, 0, -6 -6" transform="rotate(180,418,250)"/><path d="M 412 280v 12h 6a 6 6, 0, 0, 0, 0 -12" transform="rotate(180,418,286)"/><path d="M 412 328v 12h 12v -6a 6 6, 0, 0, 0, -6 -6" transform="rotate(-90,418,334)"/><rect x="412" y="340" width="12" height="12" transform="rotate(0,418,346)"/><rect x="412" y="352" width="12" height="12" transform="rotate(0,418,358)"/><rect x="412" y="364" width="12" height="12" transform="rotate(0,418,370)"/><rect x="412" y="376" width="12" height="12" transform="rotate(0,418,382)"/><rect x="412" y="388" width="12" height="12" transform="rotate(0,418,394)"/><rect x="412" y="400" width="12" height="12" transform="rotate(0,418,406)"/><path d="M 412 412v 12h 12v -6a 6 6, 0, 0, 0, -6 -6" transform="rotate(90,418,418)"/><path d="M 412 436v 12h 12v -6a 6 6, 0, 0, 0, -6 -6" transform="rotate(-90,418,442)"/><path d="M 412 448v 12h 12v -6a 6 6, 0, 0, 0, -6 -6" transform="rotate(180,418,454)"/><path d="M 424 136v 12h 6a 6 6, 0, 0, 0, 0 -12" transform="rotate(-90,430,142)"/><path d="M 424 148v 12h 6a 6 6, 0, 0, 0, 0 -12" transform="rotate(90,430,154)"/><path d="M 424 172v 12h 6a 6 6, 0, 0, 0, 0 -12" transform="rotate(-90,430,178)"/><rect x="424" y="184" width="12" height="12" transform="rotate(0,430,190)"/><path d="M 424 196v 12h 6a 6 6, 0, 0, 0, 0 -12" transform="rotate(90,430,202)"/><path d="M 424 220v 12h 6a 6 6, 0, 0, 0, 0 -12" transform="rotate(-90,430,226)"/><rect x="424" y="232" width="12" height="12" transform="rotate(0,430,238)"/><path d="M 424 244v 12h 12v -6a 6 6, 0, 0, 0, -6 -6" transform="rotate(90,430,250)"/><path d="M 424 280v 12h 6a 6 6, 0, 0, 0, 0 -12" transform="rotate(0,430,286)"/><path d="M 424 316v 12h 6a 6 6, 0, 0, 0, 0 -12" transform="rotate(-90,430,322)"/><rect x="424" y="328" width="12" height="12" transform="rotate(0,430,334)"/><rect x="424" y="340" width="12" height="12" transform="rotate(0,430,346)"/><path d="M 424 388v 12h 6a 6 6, 0, 0, 0, 0 -12" transform="rotate(0,430,394)"/><path d="M 424 436v 12h 12v -6a 6 6, 0, 0, 0, -6 -6" transform="rotate(0,430,442)"/><path d="M 424 448v 12h 12v -6a 6 6, 0, 0, 0, -6 -6" transform="rotate(90,430,454)"/><path d="M 436 184v 12h 6a 6 6, 0, 0, 0, 0 -12" transform="rotate(0,442,190)"/><path d="M 436 232v 12h 6a 6 6, 0, 0, 0, 0 -12" transform="rotate(0,442,238)"/><path d="M 436 256v 12h 6a 6 6, 0, 0, 0, 0 -12" transform="rotate(180,442,262)"/><circle cx="442" cy="298" r="6" transform="rotate(0,442,298)"/><path d="M 436 328v 12h 12v -6a 6 6, 0, 0, 0, -6 -6" transform="rotate(0,442,334)"/><path d="M 436 340v 12h 12v -6a 6 6, 0, 0, 0, -6 -6" transform="rotate(90,442,346)"/><path d="M 436 364v 12h 12v -6a 6 6, 0, 0, 0, -6 -6" transform="rotate(-90,442,370)"/><path d="M 436 376v 12h 6a 6 6, 0, 0, 0, 0 -12" transform="rotate(90,442,382)"/><circle cx="442" cy="406" r="6" transform="rotate(0,442,406)"/><path d="M 436 460v 12h 6a 6 6, 0, 0, 0, 0 -12" transform="rotate(180,442,466)"/><path d="M 448 124v 12h 6a 6 6, 0, 0, 0, 0 -12" transform="rotate(-90,454,130)"/><path d="M 448 136v 12h 6a 6 6, 0, 0, 0, 0 -12" transform="rotate(90,454,142)"/><path d="M 448 160v 12h 12v -6a 6 6, 0, 0, 0, -6 -6" transform="rotate(-90,454,166)"/><path d="M 448 172v 12h 12v -6a 6 6, 0, 0, 0, -6 -6" transform="rotate(180,454,178)"/><path d="M 448 208v 12h 12v -6a 6 6, 0, 0, 0, -6 -6" transform="rotate(-90,454,214)"/><path d="M 448 220v 12h 6a 6 6, 0, 0, 0, 0 -12" transform="rotate(90,454,226)"/><path d="M 448 244v 12h 6a 6 6, 0, 0, 0, 0 -12" transform="rotate(-90,454,250)"/><rect x="448" y="256" width="12" height="12" transform="rotate(0,454,262)"/><path d="M 448 268v 12h 12v -6a 6 6, 0, 0, 0, -6 -6" transform="rotate(180,454,274)"/><path d="M 448 316v 12h 6a 6 6, 0, 0, 0, 0 -12" transform="rotate(180,454,322)"/><rect x="448" y="364" width="12" height="12" transform="rotate(0,454,370)"/><path d="M 448 388v 12h 6a 6 6, 0, 0, 0, 0 -12" transform="rotate(180,454,394)"/><path d="M 448 424v 12h 6a 6 6, 0, 0, 0, 0 -12" transform="rotate(180,454,430)"/><rect x="448" y="460" width="12" height="12" transform="rotate(0,454,466)"/><path d="M 460 148v 12h 6a 6 6, 0, 0, 0, 0 -12" transform="rotate(-90,466,154)"/><rect x="460" y="160" width="12" height="12" transform="rotate(0,466,166)"/><rect x="460" y="172" width="12" height="12" transform="rotate(0,466,178)"/><rect x="460" y="184" width="12" height="12" transform="rotate(0,466,190)"/><rect x="460" y="196" width="12" height="12" transform="rotate(0,466,202)"/><path d="M 460 208v 12h 12v -6a 6 6, 0, 0, 0, -6 -6" transform="rotate(90,466,214)"/><path d="M 460 268v 12h 6a 6 6, 0, 0, 0, 0 -12" transform="rotate(0,466,274)"/><path d="M 460 304v 12h 6a 6 6, 0, 0, 0, 0 -12" transform="rotate(-90,466,310)"/><path d="M 460 316v 12h 12v -6a 6 6, 0, 0, 0, -6 -6" transform="rotate(90,466,322)"/><path d="M 460 364v 12h 6a 6 6, 0, 0, 0, 0 -12" transform="rotate(0,466,370)"/><path d="M 460 388v 12h 6a 6 6, 0, 0, 0, 0 -12" transform="rotate(0,466,394)"/><path d="M 460 412v 12h 6a 6 6, 0, 0, 0, 0 -12" transform="rotate(-90,466,418)"/><path d="M 460 424v 12h 12v -6a 6 6, 0, 0, 0, -6 -6" transform="rotate(90,466,430)"/><path d="M 460 460v 12h 6a 6 6, 0, 0, 0, 0 -12" transform="rotate(0,466,466)"/></clipPath><clipPath id="clip-path-corners-square-color-0-0"><path clip-rule="evenodd" d="M 28 58v 24a 30 30, 0, 0, 0, 30 30h 24a 30 30, 0, 0, 0, 30 -30v -24a 30 30, 0, 0, 0, -30 -30h -24a 30 30, 0, 0, 0, -30 30M 58 40h 24a 18 18, 0, 0, 1, 18 18v 24a 18 18, 0, 0, 1, -18 18h -24a 18 18, 0, 0, 1, -18 -18v -24a 18 18, 0, 0, 1, 18 -18" transform="rotate(0,70,70)"/></clipPath><clipPath id="clip-path-corners-dot-color-0-0"><circle cx="70" cy="70" r="18" transform="rotate(0,70,70)"/></clipPath><clipPath id="clip-path-corners-square-color-1-0"><path clip-rule="evenodd" d="M 388 58v 24a 30 30, 0, 0, 0, 30 30h 24a 30 30, 0, 0, 0, 30 -30v -24a 30 30, 0, 0, 0, -30 -30h -24a 30 30, 0, 0, 0, -30 30M 418 40h 24a 18 18, 0, 0, 1, 18 18v 24a 18 18, 0, 0, 1, -18 18h -24a 18 18, 0, 0, 1, -18 -18v -24a 18 18, 0, 0, 1, 18 -18" transform="rotate(90,430,70)"/></clipPath><clipPath id="clip-path-corners-dot-color-1-0"><circle cx="430" cy="70" r="18" transform="rotate(90,430,70)"/></clipPath><clipPath id="clip-path-corners-square-color-0-1"><path clip-rule="evenodd" d="M 28 418v 24a 30 30, 0, 0, 0, 30 30h 24a 30 30, 0, 0, 0, 30 -30v -24a 30 30, 0, 0, 0, -30 -30h -24a 30 30, 0, 0, 0, -30 30M 58 400h 24a 18 18, 0, 0, 1, 18 18v 24a 18 18, 0, 0, 1, -18 18h -24a 18 18, 0, 0, 1, -18 -18v -24a 18 18, 0, 0, 1, 18 -18" transform="rotate(-90,70,430)"/></clipPath><clipPath id="clip-path-corners-dot-color-0-1"><circle cx="70" cy="430" r="18" transform="rotate(-90,70,430)"/></clipPath></defs><rect x="0" y="0" height="500" width="500" clip-path="url('#clip-path-background-color')" fill="#fff"/><rect x="0" y="0" height="500" width="500" clip-path="url('#clip-path-dot-color')" fill="#18417E"/><rect x="28" y="28" height="84" width="84" clip-path="url('#clip-path-corners-square-color-0-0')" fill="#18417E"/><rect x="52" y="52" height="36" width="36" clip-path="url('#clip-path-corners-dot-color-0-0')" fill="#18417E"/><rect x="388" y="28" height="84" width="84" clip-path="url('#clip-path-corners-square-color-1-0')" fill="#18417E"/><rect x="412" y="52" height="36" width="36" clip-path="url('#clip-path-corners-dot-color-1-0')" fill="#18417E"/><rect x="28" y="388" height="84" width="84" clip-path="url('#clip-path-corners-square-color-0-1')" fill="#18417E"/><rect x="52" y="412" height="36" width="36" clip-path="url('#clip-path-corners-dot-color-0-1')" fill="#18417E"/></svg>