<?xml version="1.0" standalone="no"?>
<svg xmlns="http://www.w3.org/2000/svg" width="500" height="500"><defs><clipPath id="clip-path-dot-color"><circle cx="26" cy="138" r="7" transform="rotate(0,26,138)"/><path d="M 19 159v 14h 7a 7 7, 0, 0, 0, 0 -14" transform="rotate(180,26,166)"/><circle cx="26" cy="208" r="7" transform="rotate(0,26,208)"/><path d="M 19 243v 14h 7a 7 7, 0, 0, 0, 0 -14" transform="rotate(180,26,250)"/><circle cx="26" cy="292" r="7" transform="rotate(0,26,292)"/><path d="M 19 313v 14h 7a 7 7, 0, 0, 0, 0 -14" transform="rotate(-90,26,320)"/><rect x="19" y="327" width="14" height="14" transform="rotate(0,26,334)"/><path d="M 19 341v 14h 14v -7a 7 7, 0, 0, 0, -7 -7" transform="rotate(180,26,348)"/><path d="M 33 145v 14h 7a 7 7, 0, 0, 0, 0 -14" transform="rotate(-90,40,152)"/><rect x="33" y="159" width="14" height="14" transform="rotate(0,40,166)"/><path d="M 33 173v 14h 7a 7 7, 0, 0, 0, 0 -14" transform="rotate(90,40,180)"/><path d="M 33 215v 14h 7a 7 7, 0, 0, 0, 0 -14" transform="rotate(180,40,222)"/><rect x="33" y="243" width="14" height="14" transform="rotate(0,40,250)"/><path d="M 33 257v 14h 14v -7a 7 7, 0, 0, 0, -7 -7" transform="rotate(180,40,264)"/><rect x="33" y="341" width="14" height="14" transform="rotate(0,40,348)"/><path d="M 47 131v 14h 7a 7 7, 0, 0, 0, 0 -14" transform="rotate(180,54,138)"/><path d="M 47 215v 14h 7a 7 7, 0, 0, 0, 0 -14" transform="rotate(0,54,222)"/><path d="M 47 243v 14h 14v -7a 7 7, 0, 0, 0, -7 -7" transform="rotate(0,54,250)"/><rect x="47" y="257" width="14" height="14" transform="rotate(0,54,264)"/><path d="M 47 285v 14h 7a 7 7, 0, 0, 0, 0 -14" transform="rotate(-90,54,292)"/><path d="M 47 299v 14h 7a 7 7, 0, 0, 0, 0 -14" transform="rotate(90,54,306)"/><path d="M 47 341v 14h 14v -7a 7 7, 0, 0, 0, -7 -7" transform="rotate(0,54,348)"/><path d="M 47 355v 14h 7a 7 7, 0, 0, 0, 0 -14" transform="rotate(90,54,362)"/><path d="M 61 131v 14h 7a 7 7, 0, 0, 0, 0 -14" transform="rotate(0,68,138)"/><circle cx="68" cy="166" r="7" transform="rotate(0,68,166)"/><path d="M 61 187v 14h 7a 7 7, 0, 0, 0, 0 -14" transform="rotate(180,68,194)"/><circle cx="68" cy="236" r="7" transform="rotate(0,68,236)"/><path d="M 61 257v 14h 7a 7 7, 0, 0, 0, 0 -14" transform="rotate(0,68,264)"/><path d="M 61 313v 14h 7a 7 7, 0, 0, 0, 0 -14" transform="rotate(180,68,320)"/><path d="M 75 145v 14h 7a 7 7, 0, 0, 0, 0 -14" transform="rotate(180,82,152)"/><path d="M 75 173v 14h 14v -7a 7 7, 0, 0, 0, -7 -7" transform="rotate(-90,82,180)"/><rect x="75" y="187" width="14" height="14" transform="rotate(0,82,194)"/><path d="M 75 201v 14h 14v -7a 7 7, 0, 0, 0, -7 -7" transform="rotate(180,82,208)"/><path d="M 75 243v 14h 7a 7 7, 0, 0, 0, 0 -14" transform="rotate(180,82,250)"/><circle cx="82" cy="292" r="7" transform="rotate(0,82,292)"/><path d="M 75 313v 14h 7a 7 7, 0, 0, 0, 0 -14" transform="rotate(0,82,320)"/><path d="M 75 341v 14h 7a 7 7, 0, 0, 0, 0 -14" transform="rotate(-90,82,348)"/><path d="M 75 355v 14h 14v -7a 7 7, 0, 0, 0, -7 -7" transform="rotate(180,82,362)"/><path d="M 89 131v 14h 14v -7a 7 7, 0, 0, 0, -7 -7" transform="rotate(-90,96,138)"/><rect x="89" y="145" width="14" height="14" transform="rotate(0,96,152)"/><rect x="89" y="159" width="14" height="14" transform="rotate(0,96,166)"/><path d="M 89 173v 14h 14v -7a 7 7, 0, 0, 0, -7 -7" transform="rotate(90,96,180)"/><path d="M 89 201v 14h 7a 7 7, 0, 0, 0, 0 -14" transform="rotate(0,96,208)"/><path d="M 89 229v 14h 7a 7 7, 0, 0, 0, 0 -14" transform="rotate(-90,96,236)"/><rect x="89" y="243" width="14" height="14" transform="rotate(0,96,250)"/><path d="M 89 271v 14h 7a 7 7, 0, 0, 0, 0 -14" transform="rotate(180,96,278)"/><path d="M 89 299v 14h 7a 7 7, 0, 0, 0, 0 -14" transform="rotate(180,96,306)"/><path d="M 89 327v 14h 7a 7 7, 0, 0, 0, 0 -14" transform="rotate(180,96,334)"/><rect x="89" y="355" width="14" height="14" transform="rotate(0,96,362)"/><rect x="103" y="131" width="14" height="14" transform="rotate(0,110,138)"/><rect x="103" y="159" width="14" height="14" transform="rotate(0,110,166)"/><path d="M 103 187v 14h 7a 7 7, 0, 0, 0, 0 -14" transform="rotate(180,110,194)"/><path d="M 103 215v 14h 7a 7 7, 0, 0, 0, 0 -14" transform="rotate(180,110,222)"/><rect x="103" y="243" width="14" height="14" transform="rotate(0,110,250)"/><path d="M 103 271v 14h 7a 7 7, 0, 0, 0, 0 -14" transform="rotate(0,110,278)"/><rect x="103" y="299" width="14" height="14" transform="rotate(0,110,306)"/><path d="M 103 327v 14h 7a 7 7, 0, 0, 0, 0 -14" transform="rotate(0,110,334)"/><rect x="103" y="355" width="14" height="14" transform="rotate(0,110,362)"/><rect x="117" y="131" width="14" height="14" transform="rotate(0,124,138)"/><rect x="117" y="145" width="14" height="14" transform="rotate(0,124,152)"/><rect x="117" y="159" width="14" height="14" transform="rotate(0,124,166)"/><rect x="117" y="173" width="14" height="14" transform="rotate(0,124,180)"/><rect x="117" y="187" width="14" height="14" transform="rotate(0,124,194)"/><rect x="117" y="201" width="14" height="14" transform="rotate(0,124,208)"/><rect x="117" y="215" width="14" height="14" transform="rotate(0,124,222)"/><rect x="117" y="229" width="14" height="14" transform="rotate(0,124,236)"/><rect x="117" y="243" width="14" height="14" transform="rotate(0,124,250)"/><path d="M 117 257v 14h 7a 7 7, 0, 0, 0, 0 -14" transform="rotate(90,124,264)"/><path d="M 117 285v 14h 14v -7a 7 7, 0, 0, 0, -7 -7" transform="rotate(-90,124,292)"/><rect x="117" y="299" width="14" height="14" transform="rotate(0,124,306)"/><path d="M 117 313v 14h 14v -7a 7 7, 0, 0, 0, -7 -7" transform="rotate(180,124,320)"/><path d="M 117 341v 14h 7a 7 7, 0, 0, 0, 0 -14" transform="rotate(-90,124,348)"/><rect x="117" y="355" width="14" height="14" transform="rotate(0,124,362)"/><circle cx="138" cy="40" r="7" transform="rotate(0,138,40)"/><path d="M 131 61v 14h 7a 7 7, 0, 0, 0, 0 -14" transform="rotate(180,138,68)"/><path d="M 131 89v 14h 7a 7 7, 0, 0, 0, 0 -14" transform="rotate(-90,138,96)"/><rect x="131" y="103" width="14" height="14" transform="rotate(0,138,110)"/><rect x="131" y="117" width="14" height="14" transform="rotate(0,138,124)"/><path d="M 131 131v 14h 14v -7a 7 7, 0, 0, 0, -7 -7" transform="rotate(90,138,138)"/><rect x="131" y="187" width="14" height="14" transform="rotate(0,138,194)"/><rect x="131" y="201" width="14" height="14" transform="rotate(0,138,208)"/><path d="M 131 229v 14h 14v -7a 7 7, 0, 0, 0, -7 -7" transform="rotate(0,138,236)"/><path d="M 131 243v 14h 14v -7a 7 7, 0, 0, 0, -7 -7" transform="rotate(90,138,250)"/><path d="M 131 285v 14h 7a 7 7, 0, 0, 0, 0 -14" transform="rotate(0,138,292)"/><path d="M 131 313v 14h 7a 7 7, 0, 0, 0, 0 -14" transform="rotate(0,138,320)"/><rect x="131" y="355" width="14" height="14" transform="rotate(0,138,362)"/><rect x="131" y="369" width="14" height="14" transform="rotate(0,138,376)"/><rect x="131" y="383" width="14" height="14" transform="rotate(0,138,390)"/><path d="M 131 397v 14h 14v -7a 7 7, 0, 0, 0, -7 -7" transform="rotate(180,138,404)"/><path d="M 131 425v 14h 7a 7 7, 0, 0, 0, 0 -14" transform="rotate(-90,138,432)"/><path d="M 131 439v 14h 7a 7 7, 0, 0, 0, 0 -14" transform="rotate(90,138,446)"/><path d="M 131 467v 14h 7a 7 7, 0, 0, 0, 0 -14" transform="rotate(180,138,474)"/><circle cx="152" cy="26" r="7" transform="rotate(0,152,26)"/><rect x="145" y="61" width="14" height="14" transform="rotate(0,152,68)"/><path d="M 145 75v 14h 7a 7 7, 0, 0, 0, 0 -14" transform="rotate(90,152,82)"/><path d="M 145 117v 14h 7a 7 7, 0, 0, 0, 0 -14" transform="rotate(0,152,124)"/><path d="M 145 145v 14h 14v -7a 7 7, 0, 0, 0, -7 -7" transform="rotate(-90,152,152)"/><rect x="145" y="159" width="14" height="14" transform="rotate(0,152,166)"/><rect x="145" y="173" width="14" height="14" transform="rotate(0,152,180)"/><rect x="145" y="187" width="14" height="14" transform="rotate(0,152,194)"/><rect x="145" y="201" width="14" height="14" transform="rotate(0,152,208)"/><path d="M 145 215v 14h 14v -7a 7 7, 0, 0, 0, -7 -7" transform="rotate(180,152,222)"/><circle cx="152" cy="306" r="7" transform="rotate(0,152,306)"/><path d="M 145 327v 14h 7a 7 7, 0, 0, 0, 0 -14" transform="rotate(180,152,334)"/><rect x="145" y="355" width="14" height="14" transform="rotate(0,152,362)"/><rect x="145" y="369" width="14" height="14" transform="rotate(0,152,376)"/><rect x="145" y="383" width="14" height="14" transform="rotate(0,152,390)"/><rect x="145" y="397" width="14" height="14" transform="rotate(0,152,404)"/><path d="M 145 453v 14h 7a 7 7, 0, 0, 0, 0 -14" transform="rotate(-90,152,460)"/><rect x="145" y="467" width="14" height="14" transform="rotate(0,152,474)"/><circle cx="166" cy="40" r="7" transform="rotate(0,166,40)"/><path d="M 159 61v 14h 7a 7 7, 0, 0, 0, 0 -14" transform="rotate(0,166,68)"/><path d="M 159 89v 14h 14v -7a 7 7, 0, 0, 0, -7 -7" transform="rotate(-90,166,96)"/><path d="M 159 103v 14h 7a 7 7, 0, 0, 0, 0 -14" transform="rotate(90,166,110)"/><rect x="159" y="145" width="14" height="14" transform="rotate(0,166,152)"/><path d="M 159 173v 14h 14v -7a 7 7, 0, 0, 0, -7 -7" transform="rotate(0,166,180)"/><rect x="159" y="187" width="14" height="14" transform="rotate(0,166,194)"/><path d="M 159 215v 14h 14v -7a 7 7, 0, 0, 0, -7 -7" transform="rotate(0,166,222)"/><path d="M 159 229v 14h 7a 7 7, 0, 0, 0, 0 -14" transform="rotate(90,166,236)"/><path d="M 159 257v 14h 7a 7 7, 0, 0, 0, 0 -14" transform="rotate(180,166,264)"/><path d="M 159 285v 14h 7a 7 7, 0, 0, 0, 0 -14" transform="rotate(180,166,292)"/><path d="M 159 313v 14h 7a 7 7, 0, 0, 0, 0 -14" transform="rotate(-90,166,320)"/><path d="M 159 327v 14h 14v -7a 7 7, 0, 0, 0, -7 -7" transform="rotate(90,166,334)"/><rect x="159" y="355" width="14" height="14" transform="rotate(0,166,362)"/><rect x="159" y="369" width="14" height="14" transform="rotate(0,166,376)"/><rect x="159" y="383" width="14" height="14" transform="rotate(0,166,390)"/><rect x="159" y="397" width="14" height="14" transform="rotate(0,166,404)"/><path d="M 159 411v 14h 14v -7a 7 7, 0, 0, 0, -7 -7" transform="rotate(180,166,418)"/><circle cx="166" cy="446" r="7" transform="rotate(0,166,446)"/><path d="M 159 467v 14h 7a 7 7, 0, 0, 0, 0 -14" transform="rotate(0,166,474)"/><path d="M 173 47v 14h 7a 7 7, 0, 0, 0, 0 -14" transform="rotate(180,180,54)"/><path d="M 173 89v 14h 7a 7 7, 0, 0, 0, 0 -14" transform="rotate(0,180,96)"/><path d="M 173 117v 14h 14v -7a 7 7, 0, 0, 0, -7 -7" transform="rotate(-90,180,124)"/><rect x="173" y="131" width="14" height="14" transform="rotate(0,180,138)"/><rect x="173" y="145" width="14" height="14" transform="rotate(0,180,152)"/><path d="M 173 159v 14h 14v -7a 7 7, 0, 0, 0, -7 -7" transform="rotate(180,180,166)"/><path d="M 173 187v 14h 7a 7 7, 0, 0, 0, 0 -14" transform="rotate(0,180,194)"/><path d="M 173 243v 14h 14v -7a 7 7, 0, 0, 0, -7 -7" transform="rotate(-90,180,250)"/><path d="M 173 257v 14h 14v -7a 7 7, 0, 0, 0, -7 -7" transform="rotate(90,180,264)"/><rect x="173" y="285" width="14" height="14" transform="rotate(0,180,292)"/><path d="M 173 299v 14h 7a 7 7, 0, 0, 0, 0 -14" transform="rotate(90,180,306)"/><path d="M 173 341v 14h 14v -7a 7 7, 0, 0, 0, -7 -7" transform="rotate(-90,180,348)"/><rect x="173" y="355" width="14" height="14" transform="rotate(0,180,362)"/><rect x="173" y="383" width="14" height="14" transform="rotate(0,180,390)"/><path d="M 173 411v 14h 14v -7a 7 7, 0, 0, 0, -7 -7" transform="rotate(0,180,418)"/><path d="M 173 425v 14h 14v -7a 7 7, 0, 0, 0, -7 -7" transform="rotate(180,180,432)"/><path d="M 173 453v 14h 7a 7 7, 0, 0, 0, 0 -14" transform="rotate(180,180,460)"/><circle cx="194" cy="26" r="7" transform="rotate(0,194,26)"/><path d="M 187 47v 14h 7a 7 7, 0, 0, 0, 0 -14" transform="rotate(0,194,54)"/><path d="M 187 103v 14h 7a 7 7, 0, 0, 0, 0 -14" transform="rotate(-90,194,110)"/><path d="M 187 117v 14h 14v -7a 7 7, 0, 0, 0, -7 -7" transform="rotate(90,194,124)"/><path d="M 187 145v 14h 14v -7a 7 7, 0, 0, 0, -7 -7" transform="rotate(0,194,152)"/><path d="M 187 159v 14h 14v -7a 7 7, 0, 0, 0, -7 -7" transform="rotate(90,194,166)"/><path d="M 187 201v 14h 7a 7 7, 0, 0, 0, 0 -14" transform="rotate(-90,194,208)"/><rect x="187" y="215" width="14" height="14" transform="rotate(0,194,222)"/><rect x="187" y="229" width="14" height="14" transform="rotate(0,194,236)"/><rect x="187" y="243" width="14" height="14" transform="rotate(0,194,250)"/><path d="M 187 285v 14h 7a 7 7, 0, 0, 0, 0 -14" transform="rotate(0,194,292)"/><path d="M 187 341v 14h 14v -7a 7 7, 0, 0, 0, -7 -7" transform="rotate(0,194,348)"/><rect x="187" y="355" width="14" height="14" transform="rotate(0,194,362)"/><rect x="187" y="369" width="14" height="14" transform="rotate(0,194,376)"/><rect x="187" y="383" width="14" height="14" transform="rotate(0,194,390)"/><rect x="187" y="425" width="14" height="14" transform="rotate(0,194,432)"/><rect x="187" y="453" width="14" height="14" transform="rotate(0,194,460)"/><path d="M 201 75v 14h 7a 7 7, 0, 0, 0, 0 -14" transform="rotate(180,208,82)"/><circle cx="208" cy="180" r="7" transform="rotate(0,208,180)"/><path d="M 201 243v 14h 7a 7 7, 0, 0, 0, 0 -14" transform="rotate(0,208,250)"/><path d="M 201 313v 14h 14v -7a 7 7, 0, 0, 0, -7 -7" transform="rotate(-90,208,320)"/><path d="M 201 327v 14h 14v -7a 7 7, 0, 0, 0, -7 -7" transform="rotate(180,208,334)"/><path d="M 201 355v 14h 7a 7 7, 0, 0, 0, 0 -14" transform="rotate(0,208,362)"/><rect x="201" y="383" width="14" height="14" transform="rotate(0,208,390)"/><path d="M 201 411v 14h 7a 7 7, 0, 0, 0, 0 -14" transform="rotate(-90,208,418)"/><path d="M 201 425v 14h 14v -7a 7 7, 0, 0, 0, -7 -7" transform="rotate(90,208,432)"/><rect x="201" y="453" width="14" height="14" transform="rotate(0,208,460)"/><path d="M 201 467v 14h 7a 7 7, 0, 0, 0, 0 -14" transform="rotate(90,208,474)"/><path d="M 215 47v 14h 7a 7 7, 0, 0, 0, 0 -14" transform="rotate(180,222,54)"/><rect x="215" y="75" width="14" height="14" transform="rotate(0,222,82)"/><rect x="215" y="89" width="14" height="14" transform="rotate(0,222,96)"/><path d="M 215 103v 14h 7a 7 7, 0, 0, 0, 0 -14" transform="rotate(90,222,110)"/><circle cx="222" cy="152" r="7" transform="rotate(0,222,152)"/><path d="M 215 215v 14h 7a 7 7, 0, 0, 0, 0 -14" transform="rotate(180,222,222)"/><path d="M 215 271v 14h 7a 7 7, 0, 0, 0, 0 -14" transform="rotate(180,222,278)"/><path d="M 215 299v 14h 7a 7 7, 0, 0, 0, 0 -14" transform="rotate(-90,222,306)"/><rect x="215" y="313" width="14" height="14" transform="rotate(0,222,320)"/><rect x="215" y="327" width="14" height="14" transform="rotate(0,222,334)"/><path d="M 215 341v 14h 7a 7 7, 0, 0, 0, 0 -14" transform="rotate(90,222,348)"/><path d="M 215 369v 14h 7a 7 7, 0, 0, 0, 0 -14" transform="rotate(-90,222,376)"/><rect x="215" y="383" width="14" height="14" transform="rotate(0,222,390)"/><path d="M 215 439v 14h 7a 7 7, 0, 0, 0, 0 -14" transform="rotate(-90,222,446)"/><rect x="215" y="453" width="14" height="14" transform="rotate(0,222,460)"/><path d="M 229 19v 14h 14v -7a 7 7, 0, 0, 0, -7 -7" transform="rotate(-90,236,26)"/><rect x="229" y="33" width="14" height="14" transform="rotate(0,236,40)"/><rect x="229" y="47" width="14" height="14" transform="rotate(0,236,54)"/><path d="M 229 75v 14h 14v -7a 7 7, 0, 0, 0, -7 -7" transform="rotate(0,236,82)"/><rect x="229" y="89" width="14" height="14" transform="rotate(0,236,96)"/><path d="M 229 117v 14h 14v -7a 7 7, 0, 0, 0, -7 -7" transform="rotate(-90,236,124)"/><path d="M 229 131v 14h 7a 7 7, 0, 0, 0, 0 -14" transform="rotate(90,236,138)"/><circle cx="236" cy="166" r="7" transform="rotate(0,236,166)"/><circle cx="236" cy="194" r="7" transform="rotate(0,236,194)"/><rect x="229" y="215" width="14" height="14" transform="rotate(0,236,222)"/><rect x="229" y="229" width="14" height="14" transform="rotate(0,236,236)"/><rect x="229" y="243" width="14" height="14" transform="rotate(0,236,250)"/><rect x="229" y="257" width="14" height="14" transform="rotate(0,236,264)"/><rect x="229" y="271" width="14" height="14" transform="rotate(0,236,278)"/><path d="M 229 285v 14h 14v -7a 7 7, 0, 0, 0, -7 -7" transform="rotate(180,236,292)"/><rect x="229" y="313" width="14" height="14" transform="rotate(0,236,320)"/><rect x="229" y="327" width="14" height="14" transform="rotate(0,236,334)"/><path d="M 229 355v 14h 7a 7 7, 0, 0, 0, 0 -14" transform="rotate(180,236,362)"/><rect x="229" y="383" width="14" height="14" transform="rotate(0,236,390)"/><path d="M 229 411v 14h 7a 7 7, 0, 0, 0, 0 -14" transform="rotate(180,236,418)"/><rect x="229" y="453" width="14" height="14" transform="rotate(0,236,460)"/><rect x="243" y="19" width="14" height="14" transform="rotate(0,250,26)"/><rect x="243" y="33" width="14" height="14" transform="rotate(0,250,40)"/><path d="M 243 47v 14h 14v -7a 7 7, 0, 0, 0, -7 -7" transform="rotate(90,250,54)"/><path d="M 243 89v 14h 14v -7a 7 7, 0, 0, 0, -7 -7" transform="rotate(0,250,96)"/><rect x="243" y="103" width="14" height="14" transform="rotate(0,250,110)"/><path d="M 243 117v 14h 14v -7a 7 7, 0, 0, 0, -7 -7" transform="rotate(90,250,124)"/><circle cx="250" cy="152" r="7" transform="rotate(0,250,152)"/><path d="M 243 173v 14h 7a 7 7, 0, 0, 0, 0 -14" transform="rotate(180,250,180)"/><rect x="243" y="215" width="14" height="14" transform="rotate(0,250,222)"/><path d="M 243 229v 14h 14v -7a 7 7, 0, 0, 0, -7 -7" transform="rotate(90,250,236)"/><rect x="243" y="271" width="14" height="14" transform="rotate(0,250,278)"/><rect x="243" y="285" width="14" height="14" transform="rotate(0,250,292)"/><rect x="243" y="299" width="14" height="14" transform="rotate(0,250,306)"/><rect x="243" y="313" width="14" height="14" transform="rotate(0,250,320)"/><rect x="243" y="327" width="14" height="14" transform="rotate(0,250,334)"/><rect x="243" y="341" width="14" height="14" transform="rotate(0,250,348)"/><path d="M 243 355v 14h 14v -7a 7 7, 0, 0, 0, -7 -7" transform="rotate(90,250,362)"/><path d="M 243 383v 14h 7a 7 7, 0, 0, 0, 0 -14" transform="rotate(0,250,390)"/><path d="M 243 411v 14h 14v -7a 7 7, 0, 0, 0, -7 -7" transform="rotate(0,250,418)"/><path d="M 243 425v 14h 14v -7a 7 7, 0, 0, 0, -7 -7" transform="rotate(180,250,432)"/><rect x="243" y="453" width="14" height="14" transform="rotate(0,250,460)"/><path d="M 257 19v 14h 14v -7a 7 7, 0, 0, 0, -7 -7" transform="rotate(0,264,26)"/><path d="M 257 33v 14h 14v -7a 7 7, 0, 0, 0, -7 -7" transform="rotate(90,264,40)"/><path d="M 257 61v 14h 7a 7 7, 0, 0, 0, 0 -14" transform="rotate(180,264,68)"/><path d="M 257 131v 14h 7a 7 7, 0, 0, 0, 0 -14" transform="rotate(180,264,138)"/><path d="M 257 173v 14h 14v -7a 7 7, 0, 0, 0, -7 -7" transform="rotate(0,264,180)"/><rect x="257" y="187" width="14" height="14" transform="rotate(0,264,194)"/><rect x="257" y="201" width="14" height="14" transform="rotate(0,264,208)"/><path d="M 257 215v 14h 14v -7a 7 7, 0, 0, 0, -7 -7" transform="rotate(90,264,222)"/><path d="M 257 243v 14h 7a 7 7, 0, 0, 0, 0 -14" transform="rotate(180,264,250)"/><path d="M 257 271v 14h 7a 7 7, 0, 0, 0, 0 -14" transform="rotate(0,264,278)"/><path d="M 257 313v 14h 7a 7 7, 0, 0, 0, 0 -14" transform="rotate(0,264,320)"/><path d="M 257 341v 14h 7a 7 7, 0, 0, 0, 0 -14" transform="rotate(0,264,348)"/><circle cx="264" cy="404" r="7" transform="rotate(0,264,404)"/><path d="M 257 425v 14h 7a 7 7, 0, 0, 0, 0 -14" transform="rotate(0,264,432)"/><rect x="257" y="453" width="14" height="14" transform="rotate(0,264,460)"/><rect x="271" y="61" width="14" height="14" transform="rotate(0,278,68)"/><circle cx="278" cy="110" r="7" transform="rotate(0,278,110)"/><rect x="271" y="131" width="14" height="14" transform="rotate(0,278,138)"/><rect x="271" y="145" width="14" height="14" transform="rotate(0,278,152)"/><path d="M 271 159v 14h 7a 7 7, 0, 0, 0, 0 -14" transform="rotate(90,278,166)"/><path d="M 271 187v 14h 7a 7 7, 0, 0, 0, 0 -14" transform="rotate(0,278,194)"/><path d="M 271 229v 14h 14v -7a 7 7, 0, 0, 0, -7 -7" transform="rotate(-90,278,236)"/><rect x="271" y="243" width="14" height="14" transform="rotate(0,278,250)"/><path d="M 271 257v 14h 7a 7 7, 0, 0, 0, 0 -14" transform="rotate(90,278,264)"/><circle cx="278" cy="334" r="7" transform="rotate(0,278,334)"/><circle cx="278" cy="376" r="7" transform="rotate(0,278,376)"/><path d="M 271 439v 14h 7a 7 7, 0, 0, 0, 0 -14" transform="rotate(-90,278,446)"/><rect x="271" y="453" width="14" height="14" transform="rotate(0,278,460)"/><path d="M 271 467v 14h 14v -7a 7 7, 0, 0, 0, -7 -7" transform="rotate(180,278,474)"/><path d="M 285 19v 14h 7a 7 7, 0, 0, 0, 0 -14" transform="rotate(-90,292,26)"/><path d="M 285 33v 14h 14v -7a 7 7, 0, 0, 0, -7 -7" transform="rotate(180,292,40)"/><rect x="285" y="61" width="14" height="14" transform="rotate(0,292,68)"/><circle cx="292" cy="96" r="7" transform="rotate(0,292,96)"/><path d="M 285 117v 14h 7a 7 7, 0, 0, 0, 0 -14" transform="rotate(-90,292,124)"/><rect x="285" y="131" width="14" height="14" transform="rotate(0,292,138)"/><path d="M 285 201v 14h 14v -7a 7 7, 0, 0, 0, -7 -7" transform="rotate(-90,292,208)"/><rect x="285" y="215" width="14" height="14" transform="rotate(0,292,222)"/><rect x="285" y="229" width="14" height="14" transform="rotate(0,292,236)"/><path d="M 285 243v 14h 14v -7a 7 7, 0, 0, 0, -7 -7" transform="rotate(90,292,250)"/><path d="M 285 271v 14h 7a 7 7, 0, 0, 0, 0 -14" transform="rotate(180,292,278)"/><circle cx="292" cy="320" r="7" transform="rotate(0,292,320)"/><path d="M 285 355v 14h 7a 7 7, 0, 0, 0, 0 -14" transform="rotate(180,292,362)"/><circle cx="292" cy="404" r="7" transform="rotate(0,292,404)"/><path d="M 285 467v 14h 7a 7 7, 0, 0, 0, 0 -14" transform="rotate(0,292,474)"/><path d="M 299 33v 14h 7a 7 7, 0, 0, 0, 0 -14" transform="rotate(0,306,40)"/><rect x="299" y="61" width="14" height="14" transform="rotate(0,306,68)"/><circle cx="306" cy="110" r="7" transform="rotate(0,306,110)"/><path d="M 299 131v 14h 7a 7 7, 0, 0, 0, 0 -14" transform="rotate(0,306,138)"/><path d="M 299 187v 14h 7a 7 7, 0, 0, 0, 0 -14" transform="rotate(-90,306,194)"/><rect x="299" y="201" width="14" height="14" transform="rotate(0,306,208)"/><rect x="299" y="215" width="14" height="14" transform="rotate(0,306,222)"/><path d="M 299 229v 14h 14v -7a 7 7, 0, 0, 0, -7 -7" transform="rotate(90,306,236)"/><path d="M 299 257v 14h 7a 7 7, 0, 0, 0, 0 -14" transform="rotate(-90,306,264)"/><path d="M 299 271v 14h 14v -7a 7 7, 0, 0, 0, -7 -7" transform="rotate(90,306,278)"/><path d="M 299 327v 14h 14v -7a 7 7, 0, 0, 0, -7 -7" transform="rotate(-90,306,334)"/><rect x="299" y="341" width="14" height="14" transform="rotate(0,306,348)"/><rect x="299" y="355" width="14" height="14" transform="rotate(0,306,362)"/><rect x="313" y="61" width="14" height="14" transform="rotate(0,320,68)"/><path d="M 313 159v 14h 7a 7 7, 0, 0, 0, 0 -14" transform="rotate(-90,320,166)"/><path d="M 313 173v 14h 14v -7a 7 7, 0, 0, 0, -7 -7" transform="rotate(180,320,180)"/><path d="M 313 201v 14h 7a 7 7, 0, 0, 0, 0 -14" transform="rotate(0,320,208)"/><path d="M 313 285v 14h 7a 7 7, 0, 0, 0, 0 -14" transform="rotate(-90,320,292)"/><path d="M 313 299v 14h 14v -7a 7 7, 0, 0, 0, -7 -7" transform="rotate(180,320,306)"/><path d="M 313 327v 14h 7a 7 7, 0, 0, 0, 0 -14" transform="rotate(0,320,334)"/><path d="M 313 355v 14h 14v -7a 7 7, 0, 0, 0, -7 -7" transform="rotate(0,320,362)"/><rect x="313" y="369" width="14" height="14" transform="rotate(0,320,376)"/><path d="M 313 383v 14h 14v -7a 7 7, 0, 0, 0, -7 -7" transform="rotate(180,320,390)"/><path d="M 313 453v 14h 7a 7 7, 0, 0, 0, 0 -14" transform="rotate(-90,320,460)"/><path d="M 313 467v 14h 14v -7a 7 7, 0, 0, 0, -7 -7" transform="rotate(180,320,474)"/><path d="M 327 19v 14h 7a 7 7, 0, 0, 0, 0 -14" transform="rotate(-90,334,26)"/><path d="M 327 33v 14h 14v -7a 7 7, 0, 0, 0, -7 -7" transform="rotate(180,334,40)"/><path d="M 327 61v 14h 14v -7a 7 7, 0, 0, 0, -7 -7" transform="rotate(0,334,68)"/><rect x="327" y="75" width="14" height="14" transform="rotate(0,334,82)"/><rect x="327" y="89" width="14" height="14" transform="rotate(0,334,96)"/><path d="M 327 103v 14h 7a 7 7, 0, 0, 0, 0 -14" transform="rotate(90,334,110)"/><rect x="327" y="173" width="14" height="14" transform="rotate(0,334,180)"/><path d="M 327 187v 14h 14v -7a 7 7, 0, 0, 0, -7 -7" transform="rotate(180,334,194)"/><circle cx="334" cy="222" r="7" transform="rotate(0,334,222)"/><path d="M 327 243v 14h 7a 7 7, 0, 0, 0, 0 -14" transform="rotate(-90,334,250)"/><path d="M 327 257v 14h 7a 7 7, 0, 0, 0, 0 -14" transform="rotate(90,334,264)"/><path d="M 327 299v 14h 7a 7 7, 0, 0, 0, 0 -14" transform="rotate(0,334,306)"/><path d="M 327 383v 14h 14v -7a 7 7, 0, 0, 0, -7 -7" transform="rotate(0,334,390)"/><rect x="327" y="397" width="14" height="14" transform="rotate(0,334,404)"/><path d="M 327 411v 14h 14v -7a 7 7, 0, 0, 0, -7 -7" transform="rotate(180,334,418)"/><circle cx="334" cy="446" r="7" transform="rotate(0,334,446)"/><rect x="327" y="467" width="14" height="14" transform="rotate(0,334,474)"/><path d="M 341 33v 14h 14v -7a 7 7, 0, 0, 0, -7 -7" transform="rotate(0,348,40)"/><path d="M 341 47v 14h 7a 7 7, 0, 0, 0, 0 -14" transform="rotate(90,348,54)"/><rect x="341" y="89" width="14" height="14" transform="rotate(0,348,96)"/><rect x="341" y="173" width="14" height="14" transform="rotate(0,348,180)"/><rect x="341" y="187" width="14" height="14" transform="rotate(0,348,194)"/><path d="M 341 201v 14h 14v -7a 7 7, 0, 0, 0, -7 -7" transform="rotate(180,348,208)"/><path d="M 341 271v 14h 7a 7 7, 0, 0, 0, 0 -14" transform="rotate(180,348,278)"/><path d="M 341 313v 14h 7a 7 7, 0, 0, 0, 0 -14" transform="rotate(180,348,320)"/><circle cx="348" cy="348" r="7" transform="rotate(0,348,348)"/><rect x="341" y="411" width="14" height="14" transform="rotate(0,348,418)"/><path d="M 341 425v 14h 7a 7 7, 0, 0, 0, 0 -14" transform="rotate(90,348,432)"/><rect x="341" y="467" width="14" height="14" transform="rotate(0,348,474)"/><circle cx="362" cy="26" r="7" transform="rotate(0,362,26)"/><circle cx="362" cy="68" r="7" transform="rotate(0,362,68)"/><path d="M 355 89v 14h 14v -7a 7 7, 0, 0, 0, -7 -7" transform="rotate(0,362,96)"/><path d="M 355 103v 14h 7a 7 7, 0, 0, 0, 0 -14" transform="rotate(90,362,110)"/><path d="M 355 131v 14h 7a 7 7, 0, 0, 0, 0 -14" transform="rotate(180,362,138)"/><path d="M 355 159v 14h 14v -7a 7 7, 0, 0, 0, -7 -7" transform="rotate(-90,362,166)"/><rect x="355" y="173" width="14" height="14" transform="rotate(0,362,180)"/><rect x="355" y="187" width="14" height="14" transform="rotate(0,362,194)"/><rect x="355" y="201" width="14" height="14" transform="rotate(0,362,208)"/><path d="M 355 215v 14h 14v -7a 7 7, 0, 0, 0, -7 -7" transform="rotate(180,362,222)"/><rect x="355" y="271" width="14" height="14" transform="rotate(0,362,278)"/><rect x="355" y="285" width="14" height="14" transform="rotate(0,362,292)"/><rect x="355" y="299" width="14" height="14" transform="rotate(0,362,306)"/><path d="M 355 313v 14h 14v -7a 7 7, 0, 0, 0, -7 -7" transform="rotate(90,362,320)"/><path d="M 355 355v 14h 14v -7a 7 7, 0, 0, 0, -7 -7" transform="rotate(-90,362,362)"/><rect x="355" y="369" width="14" height="14" transform="rotate(0,362,376)"/><rect x="355" y="383" width="14" height="14" transform="rotate(0,362,390)"/><rect x="355" y="397" width="14" height="14" transform="rotate(0,362,404)"/><rect x="355" y="411" width="14" height="14" transform="rotate(0,362,418)"/><path d="M 355 453v 14h 14v -7a 7 7, 0, 0, 0, -7 -7" transform="rotate(-90,362,460)"/><rect x="355" y="467" width="14" height="14" transform="rotate(0,362,474)"/><rect x="369" y="131" width="14" height="14" transform="rotate(0,376,138)"/><rect x="369" y="145" width="14" height="14" transform="rotate(0,376,152)"/><rect x="369" y="159" width="14" height="14" transform="rotate(0,376,166)"/><rect x="369" y="201" width="14" height="14" transform="rotate(0,376,208)"/><path d="M 369 215v 14h 14v -7a 7 7, 0, 0, 0, -7 -7" transform="rotate(90,376,222)"/><rect x="369" y="271" width="14" height="14" transform="rotate(0,376,278)"/><rect x="369" y="285" width="14" height="14" transform="rotate(0,376,292)"/><path d="M 369 299v 14h 14v -7a 7 7, 0, 0, 0, -7 -7" transform="rotate(90,376,306)"/><circle cx="376" cy="334" r="7" transform="rotate(0,376,334)"/><rect x="369" y="355" width="14" height="14" transform="rotate(0,376,362)"/><rect x="369" y="411" width="14" height="14" transform="rotate(0,376,418)"/><path d="M 369 425v 14h 14v -7a 7 7, 0, 0, 0, -7 -7" transform="rotate(180,376,432)"/><rect x="369" y="453" width="14" height="14" transform="rotate(0,376,460)"/><path d="M 369 467v 14h 14v -7a 7 7, 0, 0, 0, -7 -7" transform="rotate(90,376,474)"/><rect x="383" y="131" width="14" height="14" transform="rotate(0,390,138)"/><path d="M 383 159v 14h 14v -7a 7 7, 0, 0, 0, -7 -7" transform="rotate(0,390,166)"/><rect x="383" y="173" width="14" height="14" transform="rotate(0,390,180)"/><rect x="383" y="187" width="14" height="14" transform="rotate(0,390,194)"/><path d="M 383 201v 14h 14v -7a 7 7, 0, 0, 0, -7 -7" transform="rotate(90,390,208)"/><circle cx="390" cy="236" r="7" transform="rotate(0,390,236)"/><path d="M 383 257v 14h 14v -7a 7 7, 0, 0, 0, -7 -7" transform="rotate(-90,390,264)"/><rect x="383" y="271" width="14" height="14" transform="rotate(0,390,278)"/><circle cx="390" cy="320" r="7" transform="rotate(0,390,320)"/><rect x="383" y="355" width="14" height="14" transform="rotate(0,390,362)"/><circle cx="390" cy="390" r="7" transform="rotate(0,390,390)"/><rect x="383" y="411" width="14" height="14" transform="rotate(0,390,418)"/><rect x="383" y="425" width="14" height="14" transform="rotate(0,390,432)"/><rect x="383" y="439" width="14" height="14" transform="rotate(0,390,446)"/><path d="M 383 453v 14h 14v -7a 7 7, 0, 0, 0, -7 -7" transform="rotate(90,390,460)"/><path d="M 397 131v 14h 14v -7a 7 7, 0, 0, 0, -7 -7" transform="rotate(0,404,138)"/><path d="M 397 145v 14h 7a 7 7, 0, 0, 0, 0 -14" transform="rotate(90,404,152)"/><rect x="397" y="173" width="14" height="14" transform="rotate(0,404,180)"/><path d="M 397 187v 14h 14v -7a 7 7, 0, 0, 0, -7 -7" transform="rotate(90,404,194)"/><rect x="397" y="257" width="14" height="14" transform="rotate(0,404,264)"/><rect x="397" y="271" width="14" height="14" transform="rotate(0,404,278)"/><rect x="397" y="285" width="14" height="14" transform="rotate(0,404,292)"/><path d="M 397 299v 14h 7a 7 7, 0, 0, 0, 0 -14" transform="rotate(90,404,306)"/><rect x="397" y="355" width="14" height="14" transform="rotate(0,404,362)"/><rect x="397" y="411" width="14" height="14" transform="rotate(0,404,418)"/><rect x="411" y="173" width="14" height="14" transform="rotate(0,418,180)"/><path d="M 411 215v 14h 7a 7 7, 0, 0, 0, 0 -14" transform="rotate(180,418,222)"/><rect x="411" y="257" width="14" height="14" transform="rotate(0,418,264)"/><rect x="411" y="271" width="14" height="14" transform="rotate(0,418,278)"/><rect x="411" y="285" width="14" height="14" transform="rotate(0,418,292)"/><circle cx="418" cy="334" r="7" transform="rotate(0,418,334)"/><rect x="411" y="355" width="14" height="14" transform="rotate(0,418,362)"/><rect x="411" y="369" width="14" height="14" transform="rotate(0,418,376)"/><rect x="411" y="383" width="14" height="14" transform="rotate(0,418,390)"/><rect x="411" y="397" width="14" height="14" transform="rotate(0,418,404)"/><rect x="411" y="411" width="14" height="14" transform="rotate(0,418,418)"/><path d="M 411 425v 14h 7a 7 7, 0, 0, 0, 0 -14" transform="rotate(90,418,432)"/><circle cx="418" cy="474" r="7" transform="rotate(0,418,474)"/><circle cx="432" cy="138" r="7" transform="rotate(0,432,138)"/><path d="M 425 159v 14h 7a 7 7, 0, 0, 0, 0 -14" transform="rotate(-90,432,166)"/><path d="M 425 173v 14h 14v -7a 7 7, 0, 0, 0, -7 -7" transform="rotate(90,432,180)"/><path d="M 425 201v 14h 7a 7 7, 0, 0, 0, 0 -14" transform="rotate(-90,432,208)"/><path d="M 425 215v 14h 14v -7a 7 7, 0, 0, 0, -7 -7" transform="rotate(90,432,222)"/><path d="M 425 257v 14h 7a 7 7, 0, 0, 0, 0 -14" transform="rotate(0,432,264)"/><path d="M 425 285v 14h 14v -7a 7 7, 0, 0, 0, -7 -7" transform="rotate(0,432,292)"/><path d="M 425 299v 14h 7a 7 7, 0, 0, 0, 0 -14" transform="rotate(90,432,306)"/><path d="M 425 341v 14h 14v -7a 7 7, 0, 0, 0, -7 -7" transform="rotate(-90,432,348)"/><rect x="425" y="355" width="14" height="14" transform="rotate(0,432,362)"/><path d="M 425 383v 14h 7a 7 7, 0, 0, 0, 0 -14" transform="rotate(0,432,390)"/><rect x="425" y="411" width="14" height="14" transform="rotate(0,432,418)"/><path d="M 425 439v 14h 14v -7a 7 7, 0, 0, 0, -7 -7" transform="rotate(-90,432,446)"/><path d="M 425 453v 14h 7a 7 7, 0, 0, 0, 0 -14" transform="rotate(90,432,460)"/><circle cx="446" cy="278" r="7" transform="rotate(0,446,278)"/><path d="M 439 327v 14h 7a 7 7, 0, 0, 0, 0 -14" transform="rotate(-90,446,334)"/><rect x="439" y="341" width="14" height="14" transform="rotate(0,446,348)"/><rect x="439" y="355" width="14" height="14" transform="rotate(0,446,362)"/><path d="M 439 369v 14h 14v -7a 7 7, 0, 0, 0, -7 -7" transform="rotate(180,446,376)"/><path d="M 439 411v 14h 14v -7a 7 7, 0, 0, 0, -7 -7" transform="rotate(0,446,418)"/><rect x="439" y="425" width="14" height="14" transform="rotate(0,446,432)"/><path d="M 439 439v 14h 14v -7a 7 7, 0, 0, 0, -7 -7" transform="rotate(90,446,446)"/><circle cx="446" cy="474" r="7" transform="rotate(0,446,474)"/><circle cx="460" cy="138" r="7" transform="rotate(0,460,138)"/><path d="M 453 173v 14h 7a 7 7, 0, 0, 0, 0 -14" transform="rotate(-90,460,180)"/><rect x="453" y="187" width="14" height="14" transform="rotate(0,460,194)"/><path d="M 453 201v 14h 7a 7 7, 0, 0, 0, 0 -14" transform="rotate(90,460,208)"/><path d="M 453 229v 14h 7a 7 7, 0, 0, 0, 0 -14" transform="rotate(-90,460,236)"/><rect x="453" y="243" width="14" height="14" transform="rotate(0,460,250)"/><path d="M 453 257v 14h 7a 7 7, 0, 0, 0, 0 -14" transform="rotate(90,460,264)"/><path d="M 453 313v 14h 7a 7 7, 0, 0, 0, 0 -14" transform="rotate(180,460,320)"/><path d="M 453 341v 14h 14v -7a 7 7, 0, 0, 0, -7 -7" transform="rotate(0,460,348)"/><rect x="453" y="355" width="14" height="14" transform="rotate(0,460,362)"/><rect x="453" y="369" width="14" height="14" transform="rotate(0,460,376)"/><path d="M 453 383v 14h 14v -7a 7 7, 0, 0, 0, -7 -7" transform="rotate(180,460,390)"/><path d="M 467 145v 14h 7a 7 7, 0, 0, 0, 0 -14" transform="rotate(-90,474,152)"/><path d="M 467 159v 14h 7a 7 7, 0, 0, 0, 0 -14" transform="rotate(90,474,166)"/><circle cx="474" cy="222" r="7" transform="rotate(0,474,222)"/><circle cx="474" cy="278" r="7" transform="rotate(0,474,278)"/><path d="M 467 313v 14h 7a 7 7, 0, 0, 0, 0 -14" transform="rotate(0,474,320)"/><path d="M 467 355v 14h 7a 7 7, 0, 0, 0, 0 -14" transform="rotate(0,474,362)"/><path d="M 467 383v 14h 7a 7 7, 0, 0, 0, 0 -14" transform="rotate(0,474,390)"/><path d="M 467 411v 14h 7a 7 7, 0, 0, 0, 0 -14" transform="rotate(-90,474,418)"/><path d="M 467 425v 14h 7a 7 7, 0, 0, 0, 0 -14" transform="rotate(90,474,432)"/><circle cx="474" cy="460" r="7" transform="rotate(0,474,460)"/><path clip-rule="evenodd" d="M 19 54v 28a 35 35, 0, 0, 0, 35 35h 28a 35 35, 0, 0, 0, 35 -35v -28a 35 35, 0, 0, 0, -35 -35h -28a 35 35, 0, 0, 0, -35 35M 54 33h 28a 21 21, 0, 0, 1, 21 21v 28a 21 21, 0, 0, 1, -21 21h -28a 21 21, 0, 0, 1, -21 -21v -28a 21 21, 0, 0, 1, 21 -21" transform="rotate(0,68,68)"/><circle cx="68" cy="68" r="21" transform="rotate(0,68,68)"/><path clip-rule="evenodd" d="M 383 54v 28a 35 35, 0, 0, 0, 35 35h 28a 35 35, 0, 0, 0, 35 -35v -28a 35 35, 0, 0, 0, -35 -35h -28a 35 35, 0, 0, 0, -35 35M 418 33h 28a 21 21, 0, 0, 1, 21 21v 28a 21 21, 0, 0, 1, -21 21h -28a 21 21, 0, 0, 1, -21 -21v -28a 21 21, 0, 0, 1, 21 -21" transform="rotate(90,432,68)"/><circle cx="432" cy="68" r="21" transform="rotate(90,432,68)"/><path clip-rule="evenodd" d="M 19 418v 28a 35 35, 0, 0, 0, 35 35h 28a 35 35, 0, 0, 0, 35 -35v -28a 35 35, 0, 0, 0, -35 -35h -28a 35 35, 0, 0, 0, -35 35M 54 397h 28a 21 21, 0, 0, 1, 21 21v 28a 21 21, 0, 0, 1, -21 21h -28a 21 21, 0, 0, 1, -21 -21v -28a 21 21, 0, 0, 1, 21 -21" transform="rotate(-90,68,432)"/><circle cx="68" cy="432" r="21" transform="rotate(-90,68,432)"/></clipPath></defs><rect x="0" y="0" height="500" width="500" clip-path="url('#clip-path-background-color')" fill="#fff"/><rect x="0" y="0" height="500" width="500" clip-path="url('#clip-path-dot-color')" fill="#000000"/></svg>